<svg width="750" height="750" viewBox="0 0 750 750" fill="none" xmlns="http://www.w3.org/2000/svg">
<g clip-path="url(#clip0_60_2)">
<path d="M0 0H750V750H0V0Z" fill="url(#paint0_linear_60_2)"/>
<path d="M124.011 567.854C120.41 567.854 117.175 567.273 114.304 566.111C111.433 564.926 108.983 563.217 106.955 560.984C104.927 558.751 103.366 556.051 102.272 552.884C101.201 549.694 100.666 546.116 100.666 542.151V542.117C100.666 536.876 101.612 532.376 103.503 528.616C105.394 524.834 108.072 521.928 111.535 519.9C115.021 517.85 119.123 516.824 123.84 516.824C127.736 516.824 131.154 517.519 134.094 518.909C137.033 520.276 139.426 522.156 141.271 524.549C143.14 526.919 144.382 529.619 144.997 532.649L145.134 533.23H136.213L136.076 532.854C135.142 530.211 133.627 528.149 131.53 526.668C129.457 525.187 126.905 524.446 123.874 524.446C120.912 524.446 118.371 525.141 116.252 526.531C114.133 527.921 112.504 529.938 111.364 532.581C110.225 535.201 109.655 538.357 109.655 542.049V542.083C109.655 544.909 109.986 547.449 110.646 549.705C111.307 551.938 112.264 553.841 113.518 555.413C114.794 556.963 116.32 558.159 118.098 559.002C119.875 559.822 121.88 560.232 124.113 560.232C126.597 560.232 128.785 559.754 130.676 558.797C132.59 557.84 134.082 556.495 135.153 554.764C136.247 553.032 136.817 551.015 136.862 548.714L136.896 547.962H124.66V541.092H145.51V546.424C145.51 549.751 145.02 552.736 144.04 555.379C143.083 558.022 141.67 560.278 139.802 562.146C137.956 563.992 135.7 565.405 133.034 566.385C130.391 567.365 127.383 567.854 124.011 567.854ZM153.506 567V530.77H162.017V567H153.506ZM157.745 525.574C156.423 525.574 155.307 525.118 154.395 524.207C153.484 523.296 153.028 522.202 153.028 520.926C153.028 519.627 153.484 518.533 154.395 517.645C155.307 516.733 156.423 516.277 157.745 516.277C159.089 516.277 160.217 516.733 161.129 517.645C162.04 518.533 162.496 519.627 162.496 520.926C162.496 522.202 162.04 523.296 161.129 524.207C160.217 525.118 159.089 525.574 157.745 525.574ZM184.096 567.718C180.336 567.718 177.533 566.897 175.688 565.257C173.865 563.616 172.953 560.927 172.953 557.19V537.332H167.826V530.77H172.953V521.575H181.601V530.77H188.334V537.332H181.601V556.507C181.601 558.261 181.988 559.48 182.763 560.164C183.56 560.825 184.723 561.155 186.249 561.155C186.682 561.155 187.058 561.144 187.377 561.121C187.719 561.076 188.038 561.041 188.334 561.019V567.41C187.833 567.479 187.218 567.547 186.488 567.615C185.782 567.684 184.985 567.718 184.096 567.718ZM195.818 567V517.679H204.329V536.854H204.5C205.457 534.666 206.881 532.98 208.772 531.795C210.686 530.61 212.988 530.018 215.677 530.018C218.297 530.018 220.564 530.621 222.478 531.829C224.392 533.014 225.873 534.689 226.922 536.854C227.97 538.995 228.494 541.525 228.494 544.441V567H219.983V546.116C219.983 543.336 219.311 541.16 217.967 539.588C216.622 537.993 214.731 537.195 212.293 537.195C210.698 537.195 209.296 537.583 208.089 538.357C206.904 539.109 205.981 540.158 205.32 541.502C204.659 542.824 204.329 544.362 204.329 546.116V567H195.818ZM249.103 567.718C246.437 567.718 244.17 567.182 242.301 566.111C240.455 565.018 239.043 563.457 238.063 561.429C237.083 559.401 236.593 556.997 236.593 554.217V530.77H245.07V552.508C245.07 555.083 245.674 557.076 246.881 558.489C248.089 559.879 249.912 560.574 252.35 560.574C253.558 560.574 254.651 560.369 255.631 559.959C256.634 559.526 257.488 558.922 258.195 558.147C258.901 557.373 259.437 556.45 259.801 555.379C260.166 554.285 260.348 553.077 260.348 551.756V530.77H268.859V567H260.348V561.326H260.177C259.539 562.602 258.707 563.73 257.682 564.71C256.657 565.667 255.426 566.408 253.991 566.932C252.555 567.456 250.926 567.718 249.103 567.718ZM297.466 567.718C295.734 567.718 294.139 567.444 292.681 566.897C291.245 566.328 289.98 565.542 288.887 564.539C287.793 563.514 286.893 562.283 286.187 560.848H286.016V567H277.505V517.679H286.016V536.99H286.187C286.893 535.532 287.804 534.29 288.921 533.265C290.037 532.216 291.325 531.419 292.783 530.872C294.242 530.302 295.825 530.018 297.534 530.018C300.565 530.018 303.197 530.781 305.43 532.308C307.663 533.812 309.395 535.976 310.625 538.802C311.855 541.604 312.471 544.954 312.471 548.851V548.885C312.471 552.758 311.855 556.108 310.625 558.934C309.417 561.759 307.686 563.935 305.43 565.462C303.197 566.966 300.542 567.718 297.466 567.718ZM294.937 560.574C296.759 560.574 298.332 560.107 299.653 559.173C300.998 558.216 302.023 556.86 302.729 555.105C303.436 553.351 303.789 551.277 303.789 548.885V548.851C303.789 546.435 303.424 544.362 302.695 542.63C301.989 540.898 300.975 539.565 299.653 538.631C298.332 537.674 296.759 537.195 294.937 537.195C293.182 537.195 291.632 537.674 290.288 538.631C288.966 539.588 287.918 540.944 287.144 542.698C286.369 544.43 285.981 546.481 285.981 548.851V548.885C285.981 551.255 286.357 553.317 287.109 555.071C287.884 556.826 288.944 558.182 290.288 559.139C291.632 560.096 293.182 560.574 294.937 560.574Z" fill="white"/>
<g filter="url(#filter0_dd_60_2)">
<path fill-rule="evenodd" clip-rule="evenodd" d="M172.777 108.53C131.427 108.53 98 142.204 98 183.862C98 217.162 119.418 245.35 149.13 255.327C152.845 256.077 154.206 253.706 154.206 251.711C154.206 249.965 154.083 243.979 154.083 237.742C133.282 242.232 128.951 228.761 128.951 228.761C125.608 220.031 120.655 217.787 120.655 217.787C113.846 213.172 121.151 213.172 121.151 213.172C128.703 213.671 132.665 220.905 132.665 220.905C139.349 232.378 150.12 229.136 154.454 227.14C155.072 222.276 157.054 218.909 159.159 217.038C142.568 215.292 125.113 208.807 125.113 179.871C125.113 171.639 128.083 164.904 132.788 159.667C132.045 157.796 129.445 150.062 133.532 139.71C133.532 139.71 139.845 137.714 154.082 147.443C160.177 145.794 166.462 144.955 172.777 144.948C179.09 144.948 185.527 145.822 191.47 147.443C205.708 137.714 212.021 139.71 212.021 139.71C216.108 150.062 213.506 157.796 212.764 159.667C217.593 164.904 220.44 171.639 220.44 179.871C220.44 208.807 202.985 215.167 186.27 217.038C188.995 219.408 191.346 223.897 191.346 231.007C191.346 241.109 191.223 249.217 191.223 251.71C191.223 253.706 192.586 256.077 196.299 255.328C226.011 245.349 247.429 217.162 247.429 183.862C247.552 142.204 214.002 108.53 172.777 108.53Z" fill="white"/>
</g>
<path d="M96.7955 667.205C93.3182 667.205 90.2443 666.727 87.5739 665.773C84.9034 664.83 82.6591 663.438 80.8409 661.597C79.0227 659.756 77.6477 657.5 76.7159 654.83C75.7841 652.159 75.3182 649.102 75.3182 645.659C75.3182 642.33 75.7898 639.352 76.733 636.727C77.6875 634.102 79.0682 631.875 80.875 630.045C82.6932 628.205 84.8977 626.801 87.4886 625.835C90.0909 624.869 93.0341 624.386 96.3182 624.386C99.5114 624.386 102.307 624.909 104.705 625.955C107.114 626.989 109.125 628.392 110.739 630.165C112.364 631.926 113.58 633.909 114.386 636.114C115.205 638.318 115.614 640.591 115.614 642.932C115.614 644.58 115.534 646.25 115.375 647.943C115.216 649.636 114.881 651.193 114.369 652.614C113.858 654.023 113.068 655.159 112 656.023C110.943 656.886 109.511 657.318 107.705 657.318C106.909 657.318 106.034 657.193 105.08 656.943C104.125 656.693 103.278 656.278 102.54 655.699C101.801 655.119 101.364 654.341 101.227 653.364H101.023C100.75 654.023 100.33 654.648 99.7614 655.239C99.2045 655.83 98.4716 656.301 97.5625 656.653C96.6648 657.006 95.5682 657.159 94.2727 657.114C92.7955 657.057 91.4943 656.727 90.3693 656.125C89.2443 655.511 88.3011 654.682 87.5398 653.636C86.7898 652.58 86.2216 651.358 85.8352 649.972C85.4602 648.574 85.2727 647.068 85.2727 645.455C85.2727 643.92 85.5 642.517 85.9545 641.244C86.4091 639.972 87.0398 638.858 87.8466 637.903C88.6648 636.949 89.6193 636.187 90.7102 635.619C91.8125 635.04 93 634.682 94.2727 634.545C95.4091 634.432 96.4432 634.483 97.375 634.699C98.3068 634.903 99.0739 635.216 99.6761 635.636C100.278 636.045 100.659 636.5 100.818 637H101.023V635.091H104.636V650.5C104.636 651.455 104.903 652.295 105.438 653.023C105.972 653.75 106.75 654.114 107.773 654.114C108.932 654.114 109.818 653.716 110.432 652.92C111.057 652.125 111.483 650.898 111.71 649.239C111.949 647.58 112.068 645.455 112.068 642.864C112.068 641.341 111.858 639.841 111.438 638.364C111.028 636.875 110.403 635.483 109.562 634.188C108.733 632.892 107.682 631.75 106.409 630.761C105.136 629.773 103.642 629 101.926 628.443C100.222 627.875 98.2841 627.591 96.1136 627.591C93.4432 627.591 91.0511 628.006 88.9375 628.835C86.8352 629.653 85.0455 630.852 83.5682 632.432C82.1023 634 80.983 635.909 80.2102 638.159C79.4489 640.398 79.0682 642.943 79.0682 645.795C79.0682 648.693 79.4489 651.267 80.2102 653.517C80.983 655.767 82.1193 657.665 83.6193 659.21C85.1307 660.756 87 661.926 89.2273 662.722C91.4545 663.528 94.0227 663.932 96.9318 663.932C98.1818 663.932 99.4148 663.813 100.631 663.574C101.847 663.335 102.92 663.074 103.852 662.79C104.784 662.506 105.455 662.295 105.864 662.159L106.818 665.295C106.114 665.591 105.193 665.886 104.057 666.182C102.932 666.477 101.727 666.722 100.443 666.915C99.1705 667.108 97.9545 667.205 96.7955 667.205ZM94.8182 653.636C96.3409 653.636 97.5739 653.33 98.517 652.716C99.4602 652.102 100.148 651.176 100.58 649.938C101.011 648.699 101.227 647.136 101.227 645.25C101.227 643.341 100.989 641.852 100.511 640.784C100.034 639.716 99.3295 638.966 98.3977 638.534C97.4659 638.102 96.3182 637.886 94.9545 637.886C93.6591 637.886 92.5511 638.227 91.6307 638.909C90.7216 639.58 90.0227 640.477 89.5341 641.602C89.0568 642.716 88.8182 643.932 88.8182 645.25C88.8182 646.705 89.0114 648.074 89.3977 649.358C89.7841 650.631 90.4148 651.665 91.2898 652.46C92.1648 653.244 93.3409 653.636 94.8182 653.636ZM121.635 658V631.818H125.658V658H121.635ZM123.68 627.455C122.896 627.455 122.22 627.188 121.652 626.653C121.095 626.119 120.817 625.477 120.817 624.727C120.817 623.977 121.095 623.335 121.652 622.801C122.22 622.267 122.896 622 123.68 622C124.464 622 125.135 622.267 125.692 622.801C126.26 623.335 126.544 623.977 126.544 624.727C126.544 625.477 126.26 626.119 125.692 626.653C125.135 627.188 124.464 627.455 123.68 627.455ZM133.026 658V631.818H136.912V635.909H137.253C137.798 634.511 138.679 633.426 139.895 632.653C141.111 631.869 142.571 631.477 144.276 631.477C146.003 631.477 147.44 631.869 148.588 632.653C149.747 633.426 150.651 634.511 151.298 635.909H151.571C152.241 634.557 153.247 633.483 154.588 632.688C155.929 631.881 157.537 631.477 159.412 631.477C161.753 631.477 163.668 632.21 165.156 633.676C166.645 635.131 167.389 637.398 167.389 640.477V658H163.366V640.477C163.366 638.545 162.838 637.165 161.781 636.335C160.724 635.506 159.48 635.091 158.048 635.091C156.207 635.091 154.781 635.648 153.77 636.761C152.759 637.864 152.253 639.261 152.253 640.955V658H148.162V640.068C148.162 638.58 147.679 637.381 146.713 636.472C145.747 635.551 144.503 635.091 142.98 635.091C141.935 635.091 140.957 635.369 140.048 635.926C139.151 636.483 138.423 637.256 137.866 638.244C137.321 639.222 137.048 640.352 137.048 641.636V658H133.026ZM174.744 667.818V631.818H178.631V635.977H179.108C179.403 635.523 179.813 634.943 180.335 634.239C180.869 633.523 181.631 632.886 182.619 632.33C183.619 631.761 184.972 631.477 186.676 631.477C188.881 631.477 190.824 632.028 192.506 633.131C194.188 634.233 195.5 635.795 196.443 637.818C197.386 639.841 197.858 642.227 197.858 644.977C197.858 647.75 197.386 650.153 196.443 652.188C195.5 654.21 194.193 655.778 192.523 656.892C190.852 657.994 188.926 658.545 186.744 658.545C185.063 658.545 183.716 658.267 182.705 657.71C181.693 657.142 180.915 656.5 180.369 655.784C179.824 655.057 179.403 654.455 179.108 653.977H178.767V667.818H174.744ZM178.699 644.909C178.699 646.886 178.989 648.631 179.568 650.142C180.148 651.642 180.994 652.818 182.108 653.67C183.222 654.511 184.585 654.932 186.199 654.932C187.881 654.932 189.284 654.489 190.409 653.602C191.545 652.705 192.398 651.5 192.966 649.989C193.545 648.466 193.835 646.773 193.835 644.909C193.835 643.068 193.551 641.409 192.983 639.932C192.426 638.443 191.58 637.267 190.443 636.403C189.318 635.528 187.903 635.091 186.199 635.091C184.563 635.091 183.188 635.506 182.074 636.335C180.96 637.153 180.119 638.301 179.551 639.778C178.983 641.244 178.699 642.955 178.699 644.909ZM220.494 647.295V631.818H224.517V658H220.494V653.568H220.222C219.608 654.898 218.653 656.028 217.358 656.96C216.063 657.881 214.426 658.341 212.449 658.341C210.812 658.341 209.358 657.983 208.085 657.267C206.813 656.54 205.813 655.449 205.085 653.994C204.358 652.528 203.994 650.682 203.994 648.455V631.818H208.017V648.182C208.017 650.091 208.551 651.614 209.619 652.75C210.699 653.886 212.074 654.455 213.744 654.455C214.744 654.455 215.761 654.199 216.795 653.688C217.841 653.176 218.716 652.392 219.42 651.335C220.136 650.278 220.494 648.932 220.494 647.295ZM250.43 637.682L246.817 638.705C246.589 638.102 246.254 637.517 245.811 636.949C245.379 636.369 244.788 635.892 244.038 635.517C243.288 635.142 242.328 634.955 241.158 634.955C239.555 634.955 238.22 635.324 237.152 636.062C236.095 636.79 235.567 637.716 235.567 638.841C235.567 639.841 235.93 640.631 236.658 641.21C237.385 641.79 238.521 642.273 240.067 642.659L243.953 643.614C246.294 644.182 248.038 645.051 249.186 646.222C250.334 647.381 250.908 648.875 250.908 650.705C250.908 652.205 250.476 653.545 249.612 654.727C248.76 655.909 247.567 656.841 246.033 657.523C244.499 658.205 242.714 658.545 240.68 658.545C238.01 658.545 235.8 657.966 234.05 656.807C232.3 655.648 231.192 653.955 230.726 651.727L234.544 650.773C234.908 652.182 235.595 653.239 236.607 653.943C237.629 654.648 238.964 655 240.612 655C242.487 655 243.976 654.602 245.078 653.807C246.192 653 246.749 652.034 246.749 650.909C246.749 650 246.43 649.239 245.794 648.625C245.158 648 244.18 647.534 242.862 647.227L238.499 646.205C236.101 645.636 234.339 644.756 233.214 643.562C232.101 642.358 231.544 640.852 231.544 639.045C231.544 637.568 231.959 636.261 232.788 635.125C233.629 633.989 234.771 633.097 236.214 632.449C237.669 631.801 239.317 631.477 241.158 631.477C243.749 631.477 245.783 632.045 247.26 633.182C248.749 634.318 249.805 635.818 250.43 637.682ZM260.986 642.25V658H256.963V623.091H260.986V635.909H261.327C261.94 634.557 262.861 633.483 264.088 632.688C265.327 631.881 266.974 631.477 269.031 631.477C270.815 631.477 272.378 631.835 273.719 632.551C275.06 633.256 276.099 634.341 276.838 635.807C277.588 637.261 277.963 639.114 277.963 641.364V658H273.94V641.636C273.94 639.557 273.401 637.949 272.321 636.812C271.253 635.665 269.77 635.091 267.872 635.091C266.554 635.091 265.372 635.369 264.327 635.926C263.293 636.483 262.474 637.295 261.872 638.364C261.281 639.432 260.986 640.727 260.986 642.25ZM285.322 667.818V631.818H289.209V635.977H289.686C289.982 635.523 290.391 634.943 290.913 634.239C291.447 633.523 292.209 632.886 293.197 632.33C294.197 631.761 295.55 631.477 297.254 631.477C299.459 631.477 301.402 632.028 303.084 633.131C304.766 634.233 306.078 635.795 307.021 637.818C307.964 639.841 308.436 642.227 308.436 644.977C308.436 647.75 307.964 650.153 307.021 652.188C306.078 654.21 304.771 655.778 303.101 656.892C301.43 657.994 299.504 658.545 297.322 658.545C295.641 658.545 294.294 658.267 293.283 657.71C292.271 657.142 291.493 656.5 290.947 655.784C290.402 655.057 289.982 654.455 289.686 653.977H289.345V667.818H285.322ZM289.277 644.909C289.277 646.886 289.567 648.631 290.146 650.142C290.726 651.642 291.572 652.818 292.686 653.67C293.8 654.511 295.163 654.932 296.777 654.932C298.459 654.932 299.862 654.489 300.987 653.602C302.124 652.705 302.976 651.5 303.544 649.989C304.124 648.466 304.413 646.773 304.413 644.909C304.413 643.068 304.129 641.409 303.561 639.932C303.004 638.443 302.158 637.267 301.021 636.403C299.896 635.528 298.482 635.091 296.777 635.091C295.141 635.091 293.766 635.506 292.652 636.335C291.538 637.153 290.697 638.301 290.129 639.778C289.561 641.244 289.277 642.955 289.277 644.909ZM325.55 658.545C323.027 658.545 320.851 657.989 319.021 656.875C317.203 655.75 315.8 654.182 314.811 652.17C313.834 650.148 313.345 647.795 313.345 645.114C313.345 642.432 313.834 640.068 314.811 638.023C315.8 635.966 317.175 634.364 318.936 633.216C320.709 632.057 322.777 631.477 325.141 631.477C326.504 631.477 327.851 631.705 329.18 632.159C330.51 632.614 331.72 633.352 332.811 634.375C333.902 635.386 334.771 636.727 335.419 638.398C336.067 640.068 336.391 642.125 336.391 644.568V646.273H316.209V642.795H332.3C332.3 641.318 332.004 640 331.413 638.841C330.834 637.682 330.004 636.767 328.925 636.097C327.857 635.426 326.595 635.091 325.141 635.091C323.538 635.091 322.152 635.489 320.982 636.284C319.822 637.068 318.93 638.091 318.305 639.352C317.68 640.614 317.368 641.966 317.368 643.409V645.727C317.368 647.705 317.709 649.381 318.391 650.756C319.084 652.119 320.044 653.159 321.271 653.875C322.499 654.58 323.925 654.932 325.55 654.932C326.607 654.932 327.561 654.784 328.413 654.489C329.277 654.182 330.021 653.727 330.646 653.125C331.271 652.511 331.754 651.75 332.095 650.841L335.982 651.932C335.572 653.25 334.885 654.409 333.919 655.409C332.953 656.398 331.76 657.17 330.339 657.727C328.919 658.273 327.322 658.545 325.55 658.545ZM361.055 637.682L357.442 638.705C357.214 638.102 356.879 637.517 356.436 636.949C356.004 636.369 355.413 635.892 354.663 635.517C353.913 635.142 352.953 634.955 351.783 634.955C350.18 634.955 348.845 635.324 347.777 636.062C346.72 636.79 346.192 637.716 346.192 638.841C346.192 639.841 346.555 640.631 347.283 641.21C348.01 641.79 349.146 642.273 350.692 642.659L354.578 643.614C356.919 644.182 358.663 645.051 359.811 646.222C360.959 647.381 361.533 648.875 361.533 650.705C361.533 652.205 361.101 653.545 360.237 654.727C359.385 655.909 358.192 656.841 356.658 657.523C355.124 658.205 353.339 658.545 351.305 658.545C348.635 658.545 346.425 657.966 344.675 656.807C342.925 655.648 341.817 653.955 341.351 651.727L345.169 650.773C345.533 652.182 346.22 653.239 347.232 653.943C348.254 654.648 349.589 655 351.237 655C353.112 655 354.601 654.602 355.703 653.807C356.817 653 357.374 652.034 357.374 650.909C357.374 650 357.055 649.239 356.419 648.625C355.783 648 354.805 647.534 353.487 647.227L349.124 646.205C346.726 645.636 344.964 644.756 343.839 643.562C342.726 642.358 342.169 640.852 342.169 639.045C342.169 637.568 342.584 636.261 343.413 635.125C344.254 633.989 345.396 633.097 346.839 632.449C348.294 631.801 349.942 631.477 351.783 631.477C354.374 631.477 356.408 632.045 357.885 633.182C359.374 634.318 360.43 635.818 361.055 637.682ZM371.611 642.25V658H367.588V623.091H371.611V635.909H371.952C372.565 634.557 373.486 633.483 374.713 632.688C375.952 631.881 377.599 631.477 379.656 631.477C381.44 631.477 383.003 631.835 384.344 632.551C385.685 633.256 386.724 634.341 387.463 635.807C388.213 637.261 388.588 639.114 388.588 641.364V658H384.565V641.636C384.565 639.557 384.026 637.949 382.946 636.812C381.878 635.665 380.395 635.091 378.497 635.091C377.179 635.091 375.997 635.369 374.952 635.926C373.918 636.483 373.099 637.295 372.497 638.364C371.906 639.432 371.611 640.727 371.611 642.25Z" fill="white"/>
</g>
<rect x="1.5" y="1.5" width="747" height="747" rx="52.35" stroke="black" stroke-opacity="0.08" stroke-width="3"/>
<defs>
<filter id="filter0_dd_60_2" x="79.8" y="91.8" width="285.9" height="302.9" filterUnits="userSpaceOnUse" color-interpolation-filters="sRGB">
<feFlood flood-opacity="0" result="BackgroundImageFix"/>
<feColorMatrix in="SourceAlpha" type="matrix" values="0 0 0 0 0 0 0 0 0 0 0 0 0 0 0 0 0 0 127 0" result="hardAlpha"/>
<feOffset dx="53" dy="73"/>
<feGaussianBlur stdDeviation="32.35"/>
<feComposite in2="hardAlpha" operator="out"/>
<feColorMatrix type="matrix" values="0 0 0 0 0 0 0 0 0 0 0 0 0 0 0 0 0 0 0.6 0"/>
<feBlend mode="normal" in2="BackgroundImageFix" result="effect1_dropShadow_60_2"/>
<feColorMatrix in="SourceAlpha" type="matrix" values="0 0 0 0 0 0 0 0 0 0 0 0 0 0 0 0 0 0 127 0" result="hardAlpha"/>
<feOffset dx="19" dy="22"/>
<feGaussianBlur stdDeviation="18.6"/>
<feComposite in2="hardAlpha" operator="out"/>
<feColorMatrix type="matrix" values="0 0 0 0 0 0 0 0 0 0 0 0 0 0 0 0 0 0 1 0"/>
<feBlend mode="overlay" in2="effect1_dropShadow_60_2" result="effect2_dropShadow_60_2"/>
<feBlend mode="normal" in="SourceGraphic" in2="effect2_dropShadow_60_2" result="shape"/>
</filter>
<linearGradient id="paint0_linear_60_2" x1="364.5" y1="0" x2="364.5" y2="750" gradientUnits="userSpaceOnUse">
<stop stop-color="#24292E"/>
<stop offset="0.953345" stop-color="#09090A"/>
</linearGradient>
<clipPath id="clip0_60_2">
<rect width="750" height="750" rx="53.85" fill="white"/>
</clipPath>
</defs>
</svg>
