<svg width="750" height="750" viewBox="0 0 750 750" fill="none" xmlns="http://www.w3.org/2000/svg">
<g clip-path="url(#clip0_1_41)">
<rect width="750" height="750" rx="53.85" fill="white"/>
<rect width="750" height="750" fill="url(#paint0_linear_1_41)"/>
<g filter="url(#filter0_ddi_1_41)">
<path d="M249.91 251H218.455V202.278C218.455 190.66 218.245 175.703 202.095 175.703C185.711 175.703 183.205 188.362 183.205 201.432V250.997H151.749V150.804H181.947V164.497H182.369C185.391 159.386 189.758 155.182 195.005 152.332C200.252 149.482 206.182 148.093 212.164 148.312C244.045 148.312 249.923 169.053 249.923 196.036L249.91 251ZM116.257 137.109C112.647 137.11 109.117 136.051 106.115 134.068C103.113 132.085 100.773 129.265 99.3908 125.967C98.0086 122.668 97.6464 119.038 98.3501 115.535C99.0538 112.033 100.792 108.816 103.344 106.29C105.897 103.765 109.149 102.045 112.69 101.348C116.23 100.65 119.901 101.007 123.236 102.373C126.572 103.739 129.423 106.053 131.43 109.021C133.436 111.99 134.507 115.48 134.508 119.051C134.508 121.422 134.037 123.77 133.12 125.961C132.203 128.151 130.859 130.142 129.164 131.819C127.469 133.495 125.457 134.826 123.242 135.733C121.028 136.641 118.654 137.108 116.257 137.109ZM131.985 251H100.497V150.804H131.985V251Z" fill="white"/>
</g>
<path d="M102.341 567V517.679H111.159V559.583H133.513V567H102.341ZM140.655 567V530.77H149.166V567H140.655ZM144.893 525.574C143.572 525.574 142.455 525.118 141.544 524.207C140.632 523.296 140.176 522.202 140.176 520.926C140.176 519.627 140.632 518.533 141.544 517.645C142.455 516.733 143.572 516.277 144.893 516.277C146.238 516.277 147.365 516.733 148.277 517.645C149.188 518.533 149.644 519.627 149.644 520.926C149.644 522.202 149.188 523.296 148.277 524.207C147.365 525.118 146.238 525.574 144.893 525.574ZM157.812 567V530.77H166.288V536.443H166.493C167.428 534.484 168.818 532.923 170.663 531.761C172.532 530.599 174.833 530.018 177.568 530.018C181.555 530.018 184.631 531.225 186.796 533.641C188.984 536.056 190.077 539.36 190.077 543.553V567H181.567V545.262C181.567 542.687 180.963 540.704 179.755 539.314C178.547 537.902 176.736 537.195 174.321 537.195C172.703 537.195 171.29 537.571 170.082 538.323C168.875 539.052 167.94 540.078 167.279 541.399C166.619 542.698 166.288 544.225 166.288 545.979V567H157.812ZM198.689 567V517.679H207.166V567H198.689ZM221.521 567L209.387 550.525L214.822 544.236L231.331 567H221.521ZM205.935 555.721V545.809H207.371L220.906 530.77H230.716L213.831 549.124H212.259L205.935 555.721ZM250.231 567.718C246.608 567.718 243.486 566.954 240.866 565.428C238.268 563.901 236.274 561.736 234.884 558.934C233.494 556.131 232.799 552.815 232.799 548.987V548.953C232.799 545.148 233.494 541.832 234.884 539.007C236.297 536.159 238.268 533.948 240.797 532.376C243.349 530.804 246.357 530.018 249.821 530.018C253.261 530.018 256.235 530.781 258.742 532.308C261.271 533.812 263.208 535.931 264.552 538.665C265.919 541.399 266.603 544.59 266.603 548.235V550.97H237.003V545.296H262.536L258.434 550.594V547.312C258.434 544.943 258.069 542.972 257.34 541.399C256.611 539.827 255.608 538.654 254.332 537.879C253.056 537.081 251.587 536.683 249.923 536.683C248.237 536.683 246.733 537.093 245.412 537.913C244.113 538.711 243.087 539.907 242.335 541.502C241.606 543.097 241.242 545.034 241.242 547.312V550.594C241.242 552.804 241.606 554.695 242.335 556.268C243.087 557.817 244.147 559.013 245.514 559.856C246.881 560.677 248.51 561.087 250.402 561.087C251.815 561.087 253.056 560.87 254.127 560.438C255.198 559.982 256.076 559.401 256.759 558.694C257.466 557.988 257.955 557.225 258.229 556.404L258.297 556.165H266.227L266.159 556.541C265.862 557.931 265.316 559.298 264.518 560.643C263.72 561.964 262.649 563.16 261.305 564.231C259.961 565.302 258.366 566.157 256.52 566.795C254.674 567.41 252.578 567.718 250.231 567.718ZM286.904 567.718C283.851 567.718 281.196 566.966 278.94 565.462C276.707 563.935 274.976 561.759 273.745 558.934C272.537 556.108 271.934 552.758 271.934 548.885V548.851C271.934 544.954 272.549 541.604 273.779 538.802C275.01 535.976 276.742 533.812 278.975 532.308C281.208 530.781 283.84 530.018 286.87 530.018C288.602 530.018 290.186 530.302 291.621 530.872C293.079 531.419 294.367 532.216 295.483 533.265C296.6 534.29 297.5 535.532 298.184 536.99H298.389V517.679H306.865V567H298.389V560.848H298.184C297.523 562.283 296.634 563.514 295.518 564.539C294.424 565.542 293.148 566.328 291.689 566.897C290.254 567.444 288.659 567.718 286.904 567.718ZM289.468 560.574C291.222 560.574 292.772 560.096 294.116 559.139C295.461 558.182 296.509 556.826 297.261 555.071C298.013 553.317 298.389 551.255 298.389 548.885V548.851C298.389 546.481 298.001 544.43 297.227 542.698C296.475 540.944 295.426 539.588 294.082 538.631C292.76 537.674 291.222 537.195 289.468 537.195C287.645 537.195 286.061 537.674 284.717 538.631C283.395 539.565 282.37 540.898 281.641 542.63C280.934 544.362 280.581 546.435 280.581 548.851V548.885C280.581 551.277 280.934 553.351 281.641 555.105C282.37 556.86 283.395 558.216 284.717 559.173C286.061 560.107 287.645 560.574 289.468 560.574ZM316.297 567V517.679H325.116V567H316.297ZM334.343 567V530.77H342.82V536.443H343.025C343.959 534.484 345.349 532.923 347.195 531.761C349.063 530.599 351.364 530.018 354.099 530.018C358.086 530.018 361.163 531.225 363.327 533.641C365.515 536.056 366.609 539.36 366.609 543.553V567H358.098V545.262C358.098 542.687 357.494 540.704 356.286 539.314C355.079 537.902 353.267 537.195 350.852 537.195C349.234 537.195 347.821 537.571 346.613 538.323C345.406 539.052 344.472 540.078 343.811 541.399C343.15 542.698 342.82 544.225 342.82 545.979V567H334.343Z" fill="white"/>
<path d="M121.795 663.205C118.318 663.205 115.244 662.727 112.574 661.773C109.903 660.83 107.659 659.438 105.841 657.597C104.023 655.756 102.648 653.5 101.716 650.83C100.784 648.159 100.318 645.102 100.318 641.659C100.318 638.33 100.79 635.352 101.733 632.727C102.688 630.102 104.068 627.875 105.875 626.045C107.693 624.205 109.898 622.801 112.489 621.835C115.091 620.869 118.034 620.386 121.318 620.386C124.511 620.386 127.307 620.909 129.705 621.955C132.114 622.989 134.125 624.392 135.739 626.165C137.364 627.926 138.58 629.909 139.386 632.114C140.205 634.318 140.614 636.591 140.614 638.932C140.614 640.58 140.534 642.25 140.375 643.943C140.216 645.636 139.881 647.193 139.369 648.614C138.858 650.023 138.068 651.159 137 652.023C135.943 652.886 134.511 653.318 132.705 653.318C131.909 653.318 131.034 653.193 130.08 652.943C129.125 652.693 128.278 652.278 127.54 651.699C126.801 651.119 126.364 650.341 126.227 649.364H126.023C125.75 650.023 125.33 650.648 124.761 651.239C124.205 651.83 123.472 652.301 122.562 652.653C121.665 653.006 120.568 653.159 119.273 653.114C117.795 653.057 116.494 652.727 115.369 652.125C114.244 651.511 113.301 650.682 112.54 649.636C111.79 648.58 111.222 647.358 110.835 645.972C110.46 644.574 110.273 643.068 110.273 641.455C110.273 639.92 110.5 638.517 110.955 637.244C111.409 635.972 112.04 634.858 112.847 633.903C113.665 632.949 114.619 632.187 115.71 631.619C116.813 631.04 118 630.682 119.273 630.545C120.409 630.432 121.443 630.483 122.375 630.699C123.307 630.903 124.074 631.216 124.676 631.636C125.278 632.045 125.659 632.5 125.818 633H126.023V631.091H129.636V646.5C129.636 647.455 129.903 648.295 130.438 649.023C130.972 649.75 131.75 650.114 132.773 650.114C133.932 650.114 134.818 649.716 135.432 648.92C136.057 648.125 136.483 646.898 136.71 645.239C136.949 643.58 137.068 641.455 137.068 638.864C137.068 637.341 136.858 635.841 136.438 634.364C136.028 632.875 135.403 631.483 134.562 630.188C133.733 628.892 132.682 627.75 131.409 626.761C130.136 625.773 128.642 625 126.926 624.443C125.222 623.875 123.284 623.591 121.114 623.591C118.443 623.591 116.051 624.006 113.938 624.835C111.835 625.653 110.045 626.852 108.568 628.432C107.102 630 105.983 631.909 105.21 634.159C104.449 636.398 104.068 638.943 104.068 641.795C104.068 644.693 104.449 647.267 105.21 649.517C105.983 651.767 107.119 653.665 108.619 655.21C110.131 656.756 112 657.926 114.227 658.722C116.455 659.528 119.023 659.932 121.932 659.932C123.182 659.932 124.415 659.813 125.631 659.574C126.847 659.335 127.92 659.074 128.852 658.79C129.784 658.506 130.455 658.295 130.864 658.159L131.818 661.295C131.114 661.591 130.193 661.886 129.057 662.182C127.932 662.477 126.727 662.722 125.443 662.915C124.17 663.108 122.955 663.205 121.795 663.205ZM119.818 649.636C121.341 649.636 122.574 649.33 123.517 648.716C124.46 648.102 125.148 647.176 125.58 645.938C126.011 644.699 126.227 643.136 126.227 641.25C126.227 639.341 125.989 637.852 125.511 636.784C125.034 635.716 124.33 634.966 123.398 634.534C122.466 634.102 121.318 633.886 119.955 633.886C118.659 633.886 117.551 634.227 116.631 634.909C115.722 635.58 115.023 636.477 114.534 637.602C114.057 638.716 113.818 639.932 113.818 641.25C113.818 642.705 114.011 644.074 114.398 645.358C114.784 646.631 115.415 647.665 116.29 648.46C117.165 649.244 118.341 649.636 119.818 649.636ZM146.635 663.818V627.818H150.521V631.977H150.999C151.294 631.523 151.703 630.943 152.226 630.239C152.76 629.523 153.521 628.886 154.51 628.33C155.51 627.761 156.862 627.477 158.567 627.477C160.771 627.477 162.714 628.028 164.396 629.131C166.078 630.233 167.391 631.795 168.334 633.818C169.277 635.841 169.749 638.227 169.749 640.977C169.749 643.75 169.277 646.153 168.334 648.188C167.391 650.21 166.084 651.778 164.413 652.892C162.743 653.994 160.817 654.545 158.635 654.545C156.953 654.545 155.607 654.267 154.595 653.71C153.584 653.142 152.805 652.5 152.26 651.784C151.714 651.057 151.294 650.455 150.999 649.977H150.658V663.818H146.635ZM150.589 640.909C150.589 642.886 150.879 644.631 151.459 646.142C152.038 647.642 152.885 648.818 153.999 649.67C155.112 650.511 156.476 650.932 158.089 650.932C159.771 650.932 161.175 650.489 162.3 649.602C163.436 648.705 164.288 647.5 164.857 645.989C165.436 644.466 165.726 642.773 165.726 640.909C165.726 639.068 165.442 637.409 164.874 635.932C164.317 634.443 163.47 633.267 162.334 632.403C161.209 631.528 159.794 631.091 158.089 631.091C156.453 631.091 155.078 631.506 153.964 632.335C152.851 633.153 152.01 634.301 151.442 635.778C150.874 637.244 150.589 638.955 150.589 640.909ZM192.385 643.295V627.818H196.408V654H192.385V649.568H192.112C191.499 650.898 190.544 652.028 189.249 652.96C187.953 653.881 186.317 654.341 184.339 654.341C182.703 654.341 181.249 653.983 179.976 653.267C178.703 652.54 177.703 651.449 176.976 649.994C176.249 648.528 175.885 646.682 175.885 644.455V627.818H179.908V644.182C179.908 646.091 180.442 647.614 181.51 648.75C182.589 649.886 183.964 650.455 185.635 650.455C186.635 650.455 187.652 650.199 188.686 649.688C189.732 649.176 190.607 648.392 191.311 647.335C192.027 646.278 192.385 644.932 192.385 643.295ZM222.321 633.682L218.707 634.705C218.48 634.102 218.145 633.517 217.702 632.949C217.27 632.369 216.679 631.892 215.929 631.517C215.179 631.142 214.219 630.955 213.048 630.955C211.446 630.955 210.111 631.324 209.043 632.062C207.986 632.79 207.457 633.716 207.457 634.841C207.457 635.841 207.821 636.631 208.548 637.21C209.276 637.79 210.412 638.273 211.957 638.659L215.844 639.614C218.185 640.182 219.929 641.051 221.077 642.222C222.224 643.381 222.798 644.875 222.798 646.705C222.798 648.205 222.366 649.545 221.503 650.727C220.651 651.909 219.457 652.841 217.923 653.523C216.389 654.205 214.605 654.545 212.571 654.545C209.901 654.545 207.69 653.966 205.94 652.807C204.19 651.648 203.082 649.955 202.616 647.727L206.435 646.773C206.798 648.182 207.486 649.239 208.497 649.943C209.52 650.648 210.855 651 212.503 651C214.378 651 215.866 650.602 216.969 649.807C218.082 649 218.639 648.034 218.639 646.909C218.639 646 218.321 645.239 217.685 644.625C217.048 644 216.071 643.534 214.753 643.227L210.389 642.205C207.991 641.636 206.23 640.756 205.105 639.562C203.991 638.358 203.435 636.852 203.435 635.045C203.435 633.568 203.849 632.261 204.679 631.125C205.52 629.989 206.662 629.097 208.105 628.449C209.56 627.801 211.207 627.477 213.048 627.477C215.639 627.477 217.673 628.045 219.151 629.182C220.639 630.318 221.696 631.818 222.321 633.682ZM232.876 638.25V654H228.854V619.091H232.876V631.909H233.217C233.831 630.557 234.751 629.483 235.979 628.688C237.217 627.881 238.865 627.477 240.922 627.477C242.706 627.477 244.268 627.835 245.609 628.551C246.95 629.256 247.99 630.341 248.729 631.807C249.479 633.261 249.854 635.114 249.854 637.364V654H245.831V637.636C245.831 635.557 245.291 633.949 244.212 632.812C243.143 631.665 241.661 631.091 239.763 631.091C238.445 631.091 237.263 631.369 236.217 631.926C235.183 632.483 234.365 633.295 233.763 634.364C233.172 635.432 232.876 636.727 232.876 638.25ZM257.213 663.818V627.818H261.099V631.977H261.577C261.872 631.523 262.281 630.943 262.804 630.239C263.338 629.523 264.099 628.886 265.088 628.33C266.088 627.761 267.44 627.477 269.145 627.477C271.349 627.477 273.293 628.028 274.974 629.131C276.656 630.233 277.969 631.795 278.912 633.818C279.855 635.841 280.327 638.227 280.327 640.977C280.327 643.75 279.855 646.153 278.912 648.188C277.969 650.21 276.662 651.778 274.991 652.892C273.321 653.994 271.395 654.545 269.213 654.545C267.531 654.545 266.185 654.267 265.173 653.71C264.162 653.142 263.384 652.5 262.838 651.784C262.293 651.057 261.872 650.455 261.577 649.977H261.236V663.818H257.213ZM261.168 640.909C261.168 642.886 261.457 644.631 262.037 646.142C262.616 647.642 263.463 648.818 264.577 649.67C265.69 650.511 267.054 650.932 268.668 650.932C270.349 650.932 271.753 650.489 272.878 649.602C274.014 648.705 274.866 647.5 275.435 645.989C276.014 644.466 276.304 642.773 276.304 640.909C276.304 639.068 276.02 637.409 275.452 635.932C274.895 634.443 274.048 633.267 272.912 632.403C271.787 631.528 270.372 631.091 268.668 631.091C267.031 631.091 265.656 631.506 264.543 632.335C263.429 633.153 262.588 634.301 262.02 635.778C261.452 637.244 261.168 638.955 261.168 640.909ZM297.44 654.545C294.918 654.545 292.741 653.989 290.912 652.875C289.094 651.75 287.69 650.182 286.702 648.17C285.724 646.148 285.236 643.795 285.236 641.114C285.236 638.432 285.724 636.068 286.702 634.023C287.69 631.966 289.065 630.364 290.827 629.216C292.599 628.057 294.668 627.477 297.031 627.477C298.395 627.477 299.741 627.705 301.071 628.159C302.401 628.614 303.611 629.352 304.702 630.375C305.793 631.386 306.662 632.727 307.31 634.398C307.957 636.068 308.281 638.125 308.281 640.568V642.273H288.099V638.795H304.19C304.19 637.318 303.895 636 303.304 634.841C302.724 633.682 301.895 632.767 300.815 632.097C299.747 631.426 298.486 631.091 297.031 631.091C295.429 631.091 294.043 631.489 292.872 632.284C291.713 633.068 290.821 634.091 290.196 635.352C289.571 636.614 289.259 637.966 289.259 639.409V641.727C289.259 643.705 289.599 645.381 290.281 646.756C290.974 648.119 291.935 649.159 293.162 649.875C294.389 650.58 295.815 650.932 297.44 650.932C298.497 650.932 299.452 650.784 300.304 650.489C301.168 650.182 301.912 649.727 302.537 649.125C303.162 648.511 303.645 647.75 303.986 646.841L307.872 647.932C307.463 649.25 306.776 650.409 305.81 651.409C304.844 652.398 303.651 653.17 302.23 653.727C300.81 654.273 299.213 654.545 297.44 654.545ZM332.946 633.682L329.332 634.705C329.105 634.102 328.77 633.517 328.327 632.949C327.895 632.369 327.304 631.892 326.554 631.517C325.804 631.142 324.844 630.955 323.673 630.955C322.071 630.955 320.736 631.324 319.668 632.062C318.611 632.79 318.082 633.716 318.082 634.841C318.082 635.841 318.446 636.631 319.173 637.21C319.901 637.79 321.037 638.273 322.582 638.659L326.469 639.614C328.81 640.182 330.554 641.051 331.702 642.222C332.849 643.381 333.423 644.875 333.423 646.705C333.423 648.205 332.991 649.545 332.128 650.727C331.276 651.909 330.082 652.841 328.548 653.523C327.014 654.205 325.23 654.545 323.196 654.545C320.526 654.545 318.315 653.966 316.565 652.807C314.815 651.648 313.707 649.955 313.241 647.727L317.06 646.773C317.423 648.182 318.111 649.239 319.122 649.943C320.145 650.648 321.48 651 323.128 651C325.003 651 326.491 650.602 327.594 649.807C328.707 649 329.264 648.034 329.264 646.909C329.264 646 328.946 645.239 328.31 644.625C327.673 644 326.696 643.534 325.378 643.227L321.014 642.205C318.616 641.636 316.855 640.756 315.73 639.562C314.616 638.358 314.06 636.852 314.06 635.045C314.06 633.568 314.474 632.261 315.304 631.125C316.145 629.989 317.287 629.097 318.73 628.449C320.185 627.801 321.832 627.477 323.673 627.477C326.264 627.477 328.298 628.045 329.776 629.182C331.264 630.318 332.321 631.818 332.946 633.682ZM343.501 638.25V654H339.479V619.091H343.501V631.909H343.842C344.456 630.557 345.376 629.483 346.604 628.688C347.842 627.881 349.49 627.477 351.547 627.477C353.331 627.477 354.893 627.835 356.234 628.551C357.575 629.256 358.615 630.341 359.354 631.807C360.104 633.261 360.479 635.114 360.479 637.364V654H356.456V637.636C356.456 635.557 355.916 633.949 354.837 632.812C353.768 631.665 352.286 631.091 350.388 631.091C349.07 631.091 347.888 631.369 346.842 631.926C345.808 632.483 344.99 633.295 344.388 634.364C343.797 635.432 343.501 636.727 343.501 638.25ZM367.838 663.818V627.818H371.724V631.977H372.202C372.497 631.523 372.906 630.943 373.429 630.239C373.963 629.523 374.724 628.886 375.713 628.33C376.713 627.761 378.065 627.477 379.77 627.477C381.974 627.477 383.918 628.028 385.599 629.131C387.281 630.233 388.594 631.795 389.537 633.818C390.48 635.841 390.952 638.227 390.952 640.977C390.952 643.75 390.48 646.153 389.537 648.188C388.594 650.21 387.287 651.778 385.616 652.892C383.946 653.994 382.02 654.545 379.838 654.545C378.156 654.545 376.81 654.267 375.798 653.71C374.787 653.142 374.009 652.5 373.463 651.784C372.918 651.057 372.497 650.455 372.202 649.977H371.861V663.818H367.838ZM371.793 640.909C371.793 642.886 372.082 644.631 372.662 646.142C373.241 647.642 374.088 648.818 375.202 649.67C376.315 650.511 377.679 650.932 379.293 650.932C380.974 650.932 382.378 650.489 383.503 649.602C384.639 648.705 385.491 647.5 386.06 645.989C386.639 644.466 386.929 642.773 386.929 640.909C386.929 639.068 386.645 637.409 386.077 635.932C385.52 634.443 384.673 633.267 383.537 632.403C382.412 631.528 380.997 631.091 379.293 631.091C377.656 631.091 376.281 631.506 375.168 632.335C374.054 633.153 373.213 634.301 372.645 635.778C372.077 637.244 371.793 638.955 371.793 640.909ZM404.793 654.614C403.134 654.614 401.628 654.301 400.276 653.676C398.923 653.04 397.849 652.125 397.054 650.932C396.259 649.727 395.861 648.273 395.861 646.568C395.861 645.068 396.156 643.852 396.747 642.92C397.338 641.977 398.128 641.239 399.116 640.705C400.105 640.17 401.196 639.773 402.389 639.511C403.594 639.239 404.804 639.023 406.02 638.864C407.611 638.659 408.901 638.506 409.889 638.403C410.889 638.29 411.616 638.102 412.071 637.841C412.537 637.58 412.77 637.125 412.77 636.477V636.341C412.77 634.659 412.31 633.352 411.389 632.42C410.48 631.489 409.099 631.023 407.247 631.023C405.327 631.023 403.821 631.443 402.73 632.284C401.639 633.125 400.872 634.023 400.429 634.977L396.611 633.614C397.293 632.023 398.202 630.784 399.338 629.898C400.486 629 401.736 628.375 403.088 628.023C404.452 627.659 405.793 627.477 407.111 627.477C407.952 627.477 408.918 627.58 410.009 627.784C411.111 627.977 412.173 628.381 413.196 628.994C414.23 629.608 415.088 630.534 415.77 631.773C416.452 633.011 416.793 634.67 416.793 636.75V654H412.77V650.455H412.565C412.293 651.023 411.838 651.631 411.202 652.278C410.565 652.926 409.719 653.477 408.662 653.932C407.605 654.386 406.315 654.614 404.793 654.614ZM405.406 651C406.997 651 408.338 650.688 409.429 650.062C410.531 649.438 411.361 648.631 411.918 647.642C412.486 646.653 412.77 645.614 412.77 644.523V640.841C412.599 641.045 412.224 641.233 411.645 641.403C411.077 641.562 410.418 641.705 409.668 641.83C408.929 641.943 408.207 642.045 407.503 642.136C406.81 642.216 406.247 642.284 405.815 642.341C404.77 642.477 403.793 642.699 402.884 643.006C401.986 643.301 401.259 643.75 400.702 644.352C400.156 644.943 399.884 645.75 399.884 646.773C399.884 648.17 400.401 649.227 401.435 649.943C402.48 650.648 403.804 651 405.406 651ZM428.158 638.25V654H424.135V627.818H428.021V631.909H428.362C428.976 630.58 429.908 629.511 431.158 628.705C432.408 627.886 434.021 627.477 435.999 627.477C437.771 627.477 439.322 627.841 440.652 628.568C441.982 629.284 443.016 630.375 443.754 631.841C444.493 633.295 444.862 635.136 444.862 637.364V654H440.839V637.636C440.839 635.58 440.305 633.977 439.237 632.83C438.169 631.67 436.703 631.091 434.839 631.091C433.555 631.091 432.408 631.369 431.396 631.926C430.396 632.483 429.607 633.295 429.027 634.364C428.447 635.432 428.158 636.727 428.158 638.25ZM463.599 627.818V631.227H450.031V627.818H463.599ZM453.986 621.545H458.009V646.5C458.009 647.636 458.173 648.489 458.503 649.057C458.844 649.614 459.276 649.989 459.798 650.182C460.332 650.364 460.895 650.455 461.486 650.455C461.929 650.455 462.293 650.432 462.577 650.386C462.861 650.33 463.088 650.284 463.259 650.25L464.077 653.864C463.804 653.966 463.423 654.068 462.935 654.17C462.446 654.284 461.827 654.341 461.077 654.341C459.94 654.341 458.827 654.097 457.736 653.608C456.656 653.119 455.759 652.375 455.043 651.375C454.338 650.375 453.986 649.114 453.986 647.591V621.545Z" fill="white"/>
</g>
<defs>
<filter id="filter0_ddi_1_41" x="79.8" y="85.8" width="287.823" height="302.9" filterUnits="userSpaceOnUse" color-interpolation-filters="sRGB">
<feFlood flood-opacity="0" result="BackgroundImageFix"/>
<feColorMatrix in="SourceAlpha" type="matrix" values="0 0 0 0 0 0 0 0 0 0 0 0 0 0 0 0 0 0 127 0" result="hardAlpha"/>
<feOffset dx="53" dy="73"/>
<feGaussianBlur stdDeviation="32.35"/>
<feComposite in2="hardAlpha" operator="out"/>
<feColorMatrix type="matrix" values="0 0 0 0 0 0 0 0 0 0 0 0 0 0 0 0 0 0 0.3 0"/>
<feBlend mode="overlay" in2="BackgroundImageFix" result="effect1_dropShadow_1_41"/>
<feColorMatrix in="SourceAlpha" type="matrix" values="0 0 0 0 0 0 0 0 0 0 0 0 0 0 0 0 0 0 127 0" result="hardAlpha"/>
<feOffset dx="19" dy="22"/>
<feGaussianBlur stdDeviation="18.6"/>
<feComposite in2="hardAlpha" operator="out"/>
<feColorMatrix type="matrix" values="0 0 0 0 0 0 0 0 0 0 0 0 0 0 0 0 0 0 0.3 0"/>
<feBlend mode="overlay" in2="effect1_dropShadow_1_41" result="effect2_dropShadow_1_41"/>
<feBlend mode="normal" in="SourceGraphic" in2="effect2_dropShadow_1_41" result="shape"/>
<feColorMatrix in="SourceAlpha" type="matrix" values="0 0 0 0 0 0 0 0 0 0 0 0 0 0 0 0 0 0 127 0" result="hardAlpha"/>
<feOffset dx="-2" dy="-4"/>
<feGaussianBlur stdDeviation="2"/>
<feComposite in2="hardAlpha" operator="arithmetic" k2="-1" k3="1"/>
<feColorMatrix type="matrix" values="0 0 0 0 0.188235 0 0 0 0 0.419608 0 0 0 0 0.74902 0 0 0 0.45 0"/>
<feBlend mode="normal" in2="shape" result="effect3_innerShadow_1_41"/>
</filter>
<linearGradient id="paint0_linear_1_41" x1="54.4624" y1="20.7346" x2="492.974" y2="660.347" gradientUnits="userSpaceOnUse">
<stop stop-color="#3C75C6"/>
<stop offset="1" stop-color="#144589"/>
</linearGradient>
<clipPath id="clip0_1_41">
<rect width="750" height="750" rx="53.85" fill="white"/>
</clipPath>
</defs>
</svg>
