<svg width="750" height="750" viewBox="0 0 750 750" fill="none" xmlns="http://www.w3.org/2000/svg">
<g clip-path="url(#clip0_1_41)">
<rect width="750" height="750" rx="53.85" fill="white"/>
<rect width="750" height="750" fill="url(#paint0_linear_1_41)"/>
<g filter="url(#filter0_ddi_1_41)">
<path d="M249.91 251H218.455V202.278C218.455 190.66 218.245 175.703 202.095 175.703C185.711 175.703 183.205 188.362 183.205 201.432V250.997H151.749V150.804H181.947V164.497H182.369C185.391 159.386 189.758 155.182 195.005 152.332C200.252 149.482 206.182 148.093 212.164 148.312C244.045 148.312 249.923 169.053 249.923 196.036L249.91 251ZM116.257 137.109C112.647 137.11 109.117 136.051 106.115 134.068C103.113 132.085 100.773 129.265 99.3908 125.967C98.0086 122.668 97.6464 119.038 98.3501 115.535C99.0538 112.033 100.792 108.816 103.344 106.29C105.897 103.765 109.149 102.045 112.69 101.348C116.23 100.65 119.901 101.007 123.236 102.373C126.572 103.739 129.423 106.053 131.43 109.021C133.436 111.99 134.507 115.48 134.508 119.051C134.508 121.422 134.037 123.77 133.12 125.961C132.203 128.151 130.859 130.142 129.164 131.819C127.469 133.495 125.457 134.826 123.242 135.733C121.028 136.641 118.654 137.108 116.257 137.109ZM131.985 251H100.497V150.804H131.985V251Z" fill="white"/>
</g>
<path d="M102.341 567V517.679H111.159V559.583H133.513V567H102.341ZM140.655 567V530.77H149.166V567H140.655ZM144.893 525.574C143.572 525.574 142.455 525.118 141.544 524.207C140.632 523.296 140.176 522.202 140.176 520.926C140.176 519.627 140.632 518.533 141.544 517.645C142.455 516.733 143.572 516.277 144.893 516.277C146.238 516.277 147.365 516.733 148.277 517.645C149.188 518.533 149.644 519.627 149.644 520.926C149.644 522.202 149.188 523.296 148.277 524.207C147.365 525.118 146.238 525.574 144.893 525.574ZM157.812 567V530.77H166.288V536.443H166.493C167.428 534.484 168.818 532.923 170.663 531.761C172.532 530.599 174.833 530.018 177.568 530.018C181.555 530.018 184.631 531.225 186.796 533.641C188.984 536.056 190.077 539.36 190.077 543.553V567H181.567V545.262C181.567 542.687 180.963 540.704 179.755 539.314C178.547 537.902 176.736 537.195 174.321 537.195C172.703 537.195 171.29 537.571 170.082 538.323C168.875 539.052 167.94 540.078 167.279 541.399C166.619 542.698 166.288 544.225 166.288 545.979V567H157.812ZM198.689 567V517.679H207.166V567H198.689ZM221.521 567L209.387 550.525L214.822 544.236L231.331 567H221.521ZM205.935 555.721V545.809H207.371L220.906 530.77H230.716L213.831 549.124H212.259L205.935 555.721ZM250.231 567.718C246.608 567.718 243.486 566.954 240.866 565.428C238.268 563.901 236.274 561.736 234.884 558.934C233.494 556.131 232.799 552.815 232.799 548.987V548.953C232.799 545.148 233.494 541.832 234.884 539.007C236.297 536.159 238.268 533.948 240.797 532.376C243.349 530.804 246.357 530.018 249.821 530.018C253.261 530.018 256.235 530.781 258.742 532.308C261.271 533.812 263.208 535.931 264.552 538.665C265.919 541.399 266.603 544.59 266.603 548.235V550.97H237.003V545.296H262.536L258.434 550.594V547.312C258.434 544.943 258.069 542.972 257.34 541.399C256.611 539.827 255.608 538.654 254.332 537.879C253.056 537.081 251.587 536.683 249.923 536.683C248.237 536.683 246.733 537.093 245.412 537.913C244.113 538.711 243.087 539.907 242.335 541.502C241.606 543.097 241.242 545.034 241.242 547.312V550.594C241.242 552.804 241.606 554.695 242.335 556.268C243.087 557.817 244.147 559.013 245.514 559.856C246.881 560.677 248.51 561.087 250.402 561.087C251.815 561.087 253.056 560.87 254.127 560.438C255.198 559.982 256.076 559.401 256.759 558.694C257.466 557.988 257.955 557.225 258.229 556.404L258.297 556.165H266.227L266.159 556.541C265.862 557.931 265.316 559.298 264.518 560.643C263.72 561.964 262.649 563.16 261.305 564.231C259.961 565.302 258.366 566.157 256.52 566.795C254.674 567.41 252.578 567.718 250.231 567.718ZM286.904 567.718C283.851 567.718 281.196 566.966 278.94 565.462C276.707 563.935 274.976 561.759 273.745 558.934C272.537 556.108 271.934 552.758 271.934 548.885V548.851C271.934 544.954 272.549 541.604 273.779 538.802C275.01 535.976 276.742 533.812 278.975 532.308C281.208 530.781 283.84 530.018 286.87 530.018C288.602 530.018 290.186 530.302 291.621 530.872C293.079 531.419 294.367 532.216 295.483 533.265C296.6 534.29 297.5 535.532 298.184 536.99H298.389V517.679H306.865V567H298.389V560.848H298.184C297.523 562.283 296.634 563.514 295.518 564.539C294.424 565.542 293.148 566.328 291.689 566.897C290.254 567.444 288.659 567.718 286.904 567.718ZM289.468 560.574C291.222 560.574 292.772 560.096 294.116 559.139C295.461 558.182 296.509 556.826 297.261 555.071C298.013 553.317 298.389 551.255 298.389 548.885V548.851C298.389 546.481 298.001 544.43 297.227 542.698C296.475 540.944 295.426 539.588 294.082 538.631C292.76 537.674 291.222 537.195 289.468 537.195C287.645 537.195 286.061 537.674 284.717 538.631C283.395 539.565 282.37 540.898 281.641 542.63C280.934 544.362 280.581 546.435 280.581 548.851V548.885C280.581 551.277 280.934 553.351 281.641 555.105C282.37 556.86 283.395 558.216 284.717 559.173C286.061 560.107 287.645 560.574 289.468 560.574ZM316.297 567V517.679H325.116V567H316.297ZM334.343 567V530.77H342.82V536.443H343.025C343.959 534.484 345.349 532.923 347.195 531.761C349.063 530.599 351.364 530.018 354.099 530.018C358.086 530.018 361.163 531.225 363.327 533.641C365.515 536.056 366.609 539.36 366.609 543.553V567H358.098V545.262C358.098 542.687 357.494 540.704 356.286 539.314C355.079 537.902 353.267 537.195 350.852 537.195C349.234 537.195 347.821 537.571 346.613 538.323C345.406 539.052 344.472 540.078 343.811 541.399C343.15 542.698 342.82 544.225 342.82 545.979V567H334.343Z" fill="white"/>
<path d="M121.795 655.205C118.318 655.205 115.244 654.727 112.574 653.773C109.903 652.83 107.659 651.438 105.841 649.597C104.023 647.756 102.648 645.5 101.716 642.83C100.784 640.159 100.318 637.102 100.318 633.659C100.318 630.33 100.79 627.352 101.733 624.727C102.688 622.102 104.068 619.875 105.875 618.045C107.693 616.205 109.898 614.801 112.489 613.835C115.091 612.869 118.034 612.386 121.318 612.386C124.511 612.386 127.307 612.909 129.705 613.955C132.114 614.989 134.125 616.392 135.739 618.165C137.364 619.926 138.58 621.909 139.386 624.114C140.205 626.318 140.614 628.591 140.614 630.932C140.614 632.58 140.534 634.25 140.375 635.943C140.216 637.636 139.881 639.193 139.369 640.614C138.858 642.023 138.068 643.159 137 644.023C135.943 644.886 134.511 645.318 132.705 645.318C131.909 645.318 131.034 645.193 130.08 644.943C129.125 644.693 128.278 644.278 127.54 643.699C126.801 643.119 126.364 642.341 126.227 641.364H126.023C125.75 642.023 125.33 642.648 124.761 643.239C124.205 643.83 123.472 644.301 122.562 644.653C121.665 645.006 120.568 645.159 119.273 645.114C117.795 645.057 116.494 644.727 115.369 644.125C114.244 643.511 113.301 642.682 112.54 641.636C111.79 640.58 111.222 639.358 110.835 637.972C110.46 636.574 110.273 635.068 110.273 633.455C110.273 631.92 110.5 630.517 110.955 629.244C111.409 627.972 112.04 626.858 112.847 625.903C113.665 624.949 114.619 624.187 115.71 623.619C116.813 623.04 118 622.682 119.273 622.545C120.409 622.432 121.443 622.483 122.375 622.699C123.307 622.903 124.074 623.216 124.676 623.636C125.278 624.045 125.659 624.5 125.818 625H126.023V623.091H129.636V638.5C129.636 639.455 129.903 640.295 130.438 641.023C130.972 641.75 131.75 642.114 132.773 642.114C133.932 642.114 134.818 641.716 135.432 640.92C136.057 640.125 136.483 638.898 136.71 637.239C136.949 635.58 137.068 633.455 137.068 630.864C137.068 629.341 136.858 627.841 136.438 626.364C136.028 624.875 135.403 623.483 134.562 622.188C133.733 620.892 132.682 619.75 131.409 618.761C130.136 617.773 128.642 617 126.926 616.443C125.222 615.875 123.284 615.591 121.114 615.591C118.443 615.591 116.051 616.006 113.938 616.835C111.835 617.653 110.045 618.852 108.568 620.432C107.102 622 105.983 623.909 105.21 626.159C104.449 628.398 104.068 630.943 104.068 633.795C104.068 636.693 104.449 639.267 105.21 641.517C105.983 643.767 107.119 645.665 108.619 647.21C110.131 648.756 112 649.926 114.227 650.722C116.455 651.528 119.023 651.932 121.932 651.932C123.182 651.932 124.415 651.813 125.631 651.574C126.847 651.335 127.92 651.074 128.852 650.79C129.784 650.506 130.455 650.295 130.864 650.159L131.818 653.295C131.114 653.591 130.193 653.886 129.057 654.182C127.932 654.477 126.727 654.722 125.443 654.915C124.17 655.108 122.955 655.205 121.795 655.205ZM119.818 641.636C121.341 641.636 122.574 641.33 123.517 640.716C124.46 640.102 125.148 639.176 125.58 637.938C126.011 636.699 126.227 635.136 126.227 633.25C126.227 631.341 125.989 629.852 125.511 628.784C125.034 627.716 124.33 626.966 123.398 626.534C122.466 626.102 121.318 625.886 119.955 625.886C118.659 625.886 117.551 626.227 116.631 626.909C115.722 627.58 115.023 628.477 114.534 629.602C114.057 630.716 113.818 631.932 113.818 633.25C113.818 634.705 114.011 636.074 114.398 637.358C114.784 638.631 115.415 639.665 116.29 640.46C117.165 641.244 118.341 641.636 119.818 641.636ZM146.635 646V619.818H150.658V646H146.635ZM148.68 615.455C147.896 615.455 147.22 615.188 146.652 614.653C146.095 614.119 145.817 613.477 145.817 612.727C145.817 611.977 146.095 611.335 146.652 610.801C147.22 610.267 147.896 610 148.68 610C149.464 610 150.135 610.267 150.692 610.801C151.26 611.335 151.544 611.977 151.544 612.727C151.544 613.477 151.26 614.119 150.692 614.653C150.135 615.188 149.464 615.455 148.68 615.455ZM158.026 646V619.818H161.912V623.909H162.253C162.798 622.511 163.679 621.426 164.895 620.653C166.111 619.869 167.571 619.477 169.276 619.477C171.003 619.477 172.44 619.869 173.588 620.653C174.747 621.426 175.651 622.511 176.298 623.909H176.571C177.241 622.557 178.247 621.483 179.588 620.688C180.929 619.881 182.537 619.477 184.412 619.477C186.753 619.477 188.668 620.21 190.156 621.676C191.645 623.131 192.389 625.398 192.389 628.477V646H188.366V628.477C188.366 626.545 187.838 625.165 186.781 624.335C185.724 623.506 184.48 623.091 183.048 623.091C181.207 623.091 179.781 623.648 178.77 624.761C177.759 625.864 177.253 627.261 177.253 628.955V646H173.162V628.068C173.162 626.58 172.679 625.381 171.713 624.472C170.747 623.551 169.503 623.091 167.98 623.091C166.935 623.091 165.957 623.369 165.048 623.926C164.151 624.483 163.423 625.256 162.866 626.244C162.321 627.222 162.048 628.352 162.048 629.636V646H158.026ZM199.744 655.818V619.818H203.631V623.977H204.108C204.403 623.523 204.813 622.943 205.335 622.239C205.869 621.523 206.631 620.886 207.619 620.33C208.619 619.761 209.972 619.477 211.676 619.477C213.881 619.477 215.824 620.028 217.506 621.131C219.188 622.233 220.5 623.795 221.443 625.818C222.386 627.841 222.858 630.227 222.858 632.977C222.858 635.75 222.386 638.153 221.443 640.188C220.5 642.21 219.193 643.778 217.523 644.892C215.852 645.994 213.926 646.545 211.744 646.545C210.063 646.545 208.716 646.267 207.705 645.71C206.693 645.142 205.915 644.5 205.369 643.784C204.824 643.057 204.403 642.455 204.108 641.977H203.767V655.818H199.744ZM203.699 632.909C203.699 634.886 203.989 636.631 204.568 638.142C205.148 639.642 205.994 640.818 207.108 641.67C208.222 642.511 209.585 642.932 211.199 642.932C212.881 642.932 214.284 642.489 215.409 641.602C216.545 640.705 217.398 639.5 217.966 637.989C218.545 636.466 218.835 634.773 218.835 632.909C218.835 631.068 218.551 629.409 217.983 627.932C217.426 626.443 216.58 625.267 215.443 624.403C214.318 623.528 212.903 623.091 211.199 623.091C209.563 623.091 208.188 623.506 207.074 624.335C205.96 625.153 205.119 626.301 204.551 627.778C203.983 629.244 203.699 630.955 203.699 632.909ZM245.494 635.295V619.818H249.517V646H245.494V641.568H245.222C244.608 642.898 243.653 644.028 242.358 644.96C241.063 645.881 239.426 646.341 237.449 646.341C235.812 646.341 234.358 645.983 233.085 645.267C231.813 644.54 230.813 643.449 230.085 641.994C229.358 640.528 228.994 638.682 228.994 636.455V619.818H233.017V636.182C233.017 638.091 233.551 639.614 234.619 640.75C235.699 641.886 237.074 642.455 238.744 642.455C239.744 642.455 240.761 642.199 241.795 641.688C242.841 641.176 243.716 640.392 244.42 639.335C245.136 638.278 245.494 636.932 245.494 635.295ZM275.43 625.682L271.817 626.705C271.589 626.102 271.254 625.517 270.811 624.949C270.379 624.369 269.788 623.892 269.038 623.517C268.288 623.142 267.328 622.955 266.158 622.955C264.555 622.955 263.22 623.324 262.152 624.062C261.095 624.79 260.567 625.716 260.567 626.841C260.567 627.841 260.93 628.631 261.658 629.21C262.385 629.79 263.521 630.273 265.067 630.659L268.953 631.614C271.294 632.182 273.038 633.051 274.186 634.222C275.334 635.381 275.908 636.875 275.908 638.705C275.908 640.205 275.476 641.545 274.612 642.727C273.76 643.909 272.567 644.841 271.033 645.523C269.499 646.205 267.714 646.545 265.68 646.545C263.01 646.545 260.8 645.966 259.05 644.807C257.3 643.648 256.192 641.955 255.726 639.727L259.544 638.773C259.908 640.182 260.595 641.239 261.607 641.943C262.629 642.648 263.964 643 265.612 643C267.487 643 268.976 642.602 270.078 641.807C271.192 641 271.749 640.034 271.749 638.909C271.749 638 271.43 637.239 270.794 636.625C270.158 636 269.18 635.534 267.862 635.227L263.499 634.205C261.101 633.636 259.339 632.756 258.214 631.562C257.101 630.358 256.544 628.852 256.544 627.045C256.544 625.568 256.959 624.261 257.788 623.125C258.629 621.989 259.771 621.097 261.214 620.449C262.669 619.801 264.317 619.477 266.158 619.477C268.749 619.477 270.783 620.045 272.26 621.182C273.749 622.318 274.805 623.818 275.43 625.682ZM285.986 630.25V646H281.963V611.091H285.986V623.909H286.327C286.94 622.557 287.861 621.483 289.088 620.688C290.327 619.881 291.974 619.477 294.031 619.477C295.815 619.477 297.378 619.835 298.719 620.551C300.06 621.256 301.099 622.341 301.838 623.807C302.588 625.261 302.963 627.114 302.963 629.364V646H298.94V629.636C298.94 627.557 298.401 625.949 297.321 624.812C296.253 623.665 294.77 623.091 292.872 623.091C291.554 623.091 290.372 623.369 289.327 623.926C288.293 624.483 287.474 625.295 286.872 626.364C286.281 627.432 285.986 628.727 285.986 630.25ZM310.322 655.818V619.818H314.209V623.977H314.686C314.982 623.523 315.391 622.943 315.913 622.239C316.447 621.523 317.209 620.886 318.197 620.33C319.197 619.761 320.55 619.477 322.254 619.477C324.459 619.477 326.402 620.028 328.084 621.131C329.766 622.233 331.078 623.795 332.021 625.818C332.964 627.841 333.436 630.227 333.436 632.977C333.436 635.75 332.964 638.153 332.021 640.188C331.078 642.21 329.771 643.778 328.101 644.892C326.43 645.994 324.504 646.545 322.322 646.545C320.641 646.545 319.294 646.267 318.283 645.71C317.271 645.142 316.493 644.5 315.947 643.784C315.402 643.057 314.982 642.455 314.686 641.977H314.345V655.818H310.322ZM314.277 632.909C314.277 634.886 314.567 636.631 315.146 638.142C315.726 639.642 316.572 640.818 317.686 641.67C318.8 642.511 320.163 642.932 321.777 642.932C323.459 642.932 324.862 642.489 325.987 641.602C327.124 640.705 327.976 639.5 328.544 637.989C329.124 636.466 329.413 634.773 329.413 632.909C329.413 631.068 329.129 629.409 328.561 627.932C328.004 626.443 327.158 625.267 326.021 624.403C324.896 623.528 323.482 623.091 321.777 623.091C320.141 623.091 318.766 623.506 317.652 624.335C316.538 625.153 315.697 626.301 315.129 627.778C314.561 629.244 314.277 630.955 314.277 632.909ZM350.55 646.545C348.027 646.545 345.851 645.989 344.021 644.875C342.203 643.75 340.8 642.182 339.811 640.17C338.834 638.148 338.345 635.795 338.345 633.114C338.345 630.432 338.834 628.068 339.811 626.023C340.8 623.966 342.175 622.364 343.936 621.216C345.709 620.057 347.777 619.477 350.141 619.477C351.504 619.477 352.851 619.705 354.18 620.159C355.51 620.614 356.72 621.352 357.811 622.375C358.902 623.386 359.771 624.727 360.419 626.398C361.067 628.068 361.391 630.125 361.391 632.568V634.273H341.209V630.795H357.3C357.3 629.318 357.004 628 356.413 626.841C355.834 625.682 355.004 624.767 353.925 624.097C352.857 623.426 351.595 623.091 350.141 623.091C348.538 623.091 347.152 623.489 345.982 624.284C344.822 625.068 343.93 626.091 343.305 627.352C342.68 628.614 342.368 629.966 342.368 631.409V633.727C342.368 635.705 342.709 637.381 343.391 638.756C344.084 640.119 345.044 641.159 346.271 641.875C347.499 642.58 348.925 642.932 350.55 642.932C351.607 642.932 352.561 642.784 353.413 642.489C354.277 642.182 355.021 641.727 355.646 641.125C356.271 640.511 356.754 639.75 357.095 638.841L360.982 639.932C360.572 641.25 359.885 642.409 358.919 643.409C357.953 644.398 356.76 645.17 355.339 645.727C353.919 646.273 352.322 646.545 350.55 646.545ZM386.055 625.682L382.442 626.705C382.214 626.102 381.879 625.517 381.436 624.949C381.004 624.369 380.413 623.892 379.663 623.517C378.913 623.142 377.953 622.955 376.783 622.955C375.18 622.955 373.845 623.324 372.777 624.062C371.72 624.79 371.192 625.716 371.192 626.841C371.192 627.841 371.555 628.631 372.283 629.21C373.01 629.79 374.146 630.273 375.692 630.659L379.578 631.614C381.919 632.182 383.663 633.051 384.811 634.222C385.959 635.381 386.533 636.875 386.533 638.705C386.533 640.205 386.101 641.545 385.237 642.727C384.385 643.909 383.192 644.841 381.658 645.523C380.124 646.205 378.339 646.545 376.305 646.545C373.635 646.545 371.425 645.966 369.675 644.807C367.925 643.648 366.817 641.955 366.351 639.727L370.169 638.773C370.533 640.182 371.22 641.239 372.232 641.943C373.254 642.648 374.589 643 376.237 643C378.112 643 379.601 642.602 380.703 641.807C381.817 641 382.374 640.034 382.374 638.909C382.374 638 382.055 637.239 381.419 636.625C380.783 636 379.805 635.534 378.487 635.227L374.124 634.205C371.726 633.636 369.964 632.756 368.839 631.562C367.726 630.358 367.169 628.852 367.169 627.045C367.169 625.568 367.584 624.261 368.413 623.125C369.254 621.989 370.396 621.097 371.839 620.449C373.294 619.801 374.942 619.477 376.783 619.477C379.374 619.477 381.408 620.045 382.885 621.182C384.374 622.318 385.43 623.818 386.055 625.682ZM396.611 630.25V646H392.588V611.091H396.611V623.909H396.952C397.565 622.557 398.486 621.483 399.713 620.688C400.952 619.881 402.599 619.477 404.656 619.477C406.44 619.477 408.003 619.835 409.344 620.551C410.685 621.256 411.724 622.341 412.463 623.807C413.213 625.261 413.588 627.114 413.588 629.364V646H409.565V629.636C409.565 627.557 409.026 625.949 407.946 624.812C406.878 623.665 405.395 623.091 403.497 623.091C402.179 623.091 400.997 623.369 399.952 623.926C398.918 624.483 398.099 625.295 397.497 626.364C396.906 627.432 396.611 628.727 396.611 630.25Z" fill="white"/>
</g>
<defs>
<filter id="filter0_ddi_1_41" x="79.8" y="85.8" width="287.823" height="302.9" filterUnits="userSpaceOnUse" color-interpolation-filters="sRGB">
<feFlood flood-opacity="0" result="BackgroundImageFix"/>
<feColorMatrix in="SourceAlpha" type="matrix" values="0 0 0 0 0 0 0 0 0 0 0 0 0 0 0 0 0 0 127 0" result="hardAlpha"/>
<feOffset dx="53" dy="73"/>
<feGaussianBlur stdDeviation="32.35"/>
<feComposite in2="hardAlpha" operator="out"/>
<feColorMatrix type="matrix" values="0 0 0 0 0 0 0 0 0 0 0 0 0 0 0 0 0 0 0.3 0"/>
<feBlend mode="overlay" in2="BackgroundImageFix" result="effect1_dropShadow_1_41"/>
<feColorMatrix in="SourceAlpha" type="matrix" values="0 0 0 0 0 0 0 0 0 0 0 0 0 0 0 0 0 0 127 0" result="hardAlpha"/>
<feOffset dx="19" dy="22"/>
<feGaussianBlur stdDeviation="18.6"/>
<feComposite in2="hardAlpha" operator="out"/>
<feColorMatrix type="matrix" values="0 0 0 0 0 0 0 0 0 0 0 0 0 0 0 0 0 0 0.3 0"/>
<feBlend mode="overlay" in2="effect1_dropShadow_1_41" result="effect2_dropShadow_1_41"/>
<feBlend mode="normal" in="SourceGraphic" in2="effect2_dropShadow_1_41" result="shape"/>
<feColorMatrix in="SourceAlpha" type="matrix" values="0 0 0 0 0 0 0 0 0 0 0 0 0 0 0 0 0 0 127 0" result="hardAlpha"/>
<feOffset dx="-2" dy="-4"/>
<feGaussianBlur stdDeviation="2"/>
<feComposite in2="hardAlpha" operator="arithmetic" k2="-1" k3="1"/>
<feColorMatrix type="matrix" values="0 0 0 0 0.188235 0 0 0 0 0.419608 0 0 0 0 0.74902 0 0 0 0.45 0"/>
<feBlend mode="normal" in2="shape" result="effect3_innerShadow_1_41"/>
</filter>
<linearGradient id="paint0_linear_1_41" x1="54.4624" y1="20.7346" x2="492.974" y2="660.347" gradientUnits="userSpaceOnUse">
<stop stop-color="#3C75C6"/>
<stop offset="1" stop-color="#144589"/>
</linearGradient>
<clipPath id="clip0_1_41">
<rect width="750" height="750" rx="53.85" fill="white"/>
</clipPath>
</defs>
</svg>
