<svg width="750" height="750" viewBox="0 0 750 750" fill="none" xmlns="http://www.w3.org/2000/svg">
<g clip-path="url(#clip0_1_96)">
<path d="M0 0H750V750H0V0Z" fill="url(#paint0_linear_1_96)"/>
<path d="M114.406 567V525.096H99.6406V517.679H137.922V525.096H123.19V567H114.406ZM146.978 567L137.134 530.77H145.679L151.797 558.592H151.968L159.044 530.77H167.178L174.288 558.592H174.459L180.577 530.77H188.985L179.21 567H170.254L163.111 540.511H162.94L155.831 567H146.978ZM194.897 567V530.77H203.407V567H194.897ZM199.135 525.574C197.813 525.574 196.697 525.118 195.785 524.207C194.874 523.296 194.418 522.202 194.418 520.926C194.418 519.627 194.874 518.533 195.785 517.645C196.697 516.733 197.813 516.277 199.135 516.277C200.479 516.277 201.607 516.733 202.519 517.645C203.43 518.533 203.886 519.627 203.886 520.926C203.886 522.202 203.43 523.296 202.519 524.207C201.607 525.118 200.479 525.574 199.135 525.574ZM225.486 567.718C221.726 567.718 218.924 566.897 217.078 565.257C215.255 563.616 214.344 560.927 214.344 557.19V537.332H209.217V530.77H214.344V521.575H222.991V530.77H229.724V537.332H222.991V556.507C222.991 558.261 223.378 559.48 224.153 560.164C224.951 560.825 226.113 561.155 227.639 561.155C228.072 561.155 228.448 561.144 228.767 561.121C229.109 561.076 229.428 561.041 229.724 561.019V567.41C229.223 567.479 228.608 567.547 227.879 567.615C227.172 567.684 226.375 567.718 225.486 567.718ZM250.402 567.718C246.642 567.718 243.839 566.897 241.994 565.257C240.171 563.616 239.259 560.927 239.259 557.19V537.332H234.132V530.77H239.259V521.575H247.907V530.77H254.64V537.332H247.907V556.507C247.907 558.261 248.294 559.48 249.069 560.164C249.866 560.825 251.028 561.155 252.555 561.155C252.988 561.155 253.364 561.144 253.683 561.121C254.025 561.076 254.344 561.041 254.64 561.019V567.41C254.139 567.479 253.524 567.547 252.794 567.615C252.088 567.684 251.29 567.718 250.402 567.718ZM277.129 567.718C273.506 567.718 270.384 566.954 267.764 565.428C265.166 563.901 263.172 561.736 261.782 558.934C260.392 556.131 259.697 552.815 259.697 548.987V548.953C259.697 545.148 260.392 541.832 261.782 539.007C263.195 536.159 265.166 533.948 267.695 532.376C270.247 530.804 273.255 530.018 276.719 530.018C280.16 530.018 283.133 530.781 285.64 532.308C288.169 533.812 290.106 535.931 291.45 538.665C292.817 541.399 293.501 544.59 293.501 548.235V550.97H263.901V545.296H289.434L285.332 550.594V547.312C285.332 544.943 284.967 542.972 284.238 541.399C283.509 539.827 282.507 538.654 281.23 537.879C279.954 537.081 278.485 536.683 276.821 536.683C275.135 536.683 273.631 537.093 272.31 537.913C271.011 538.711 269.985 539.907 269.233 541.502C268.504 543.097 268.14 545.034 268.14 547.312V550.594C268.14 552.804 268.504 554.695 269.233 556.268C269.985 557.817 271.045 559.013 272.412 559.856C273.779 560.677 275.409 561.087 277.3 561.087C278.713 561.087 279.954 560.87 281.025 560.438C282.096 559.982 282.974 559.401 283.657 558.694C284.364 557.988 284.854 557.225 285.127 556.404L285.195 556.165H293.125L293.057 556.541C292.76 557.931 292.214 559.298 291.416 560.643C290.618 561.964 289.548 563.16 288.203 564.231C286.859 565.302 285.264 566.157 283.418 566.795C281.572 567.41 279.476 567.718 277.129 567.718ZM300.336 567V530.77H308.812V537.024H309.017C309.564 534.837 310.555 533.128 311.991 531.897C313.449 530.644 315.226 530.018 317.323 530.018C317.847 530.018 318.348 530.052 318.827 530.12C319.305 530.188 319.704 530.268 320.023 530.359V538.05C319.681 537.913 319.191 537.799 318.553 537.708C317.938 537.617 317.266 537.571 316.537 537.571C314.942 537.571 313.563 537.902 312.401 538.562C311.239 539.201 310.35 540.146 309.735 541.399C309.12 542.653 308.812 544.179 308.812 545.979V567H300.336Z" fill="white"/>
<g filter="url(#filter0_ddi_1_96)">
<path d="M204.265 96.157H224.867L179.867 147.798L233 217.824H191.253L158.723 175.375L121.313 217.824H100.711L148.964 162.668L98 96.157H140.831L170.38 135.09L204.265 96.157ZM196.946 205.387H208.331L134.596 107.783H122.127L196.946 205.387Z" fill="white"/>
</g>
<path d="M121.795 659.205C118.318 659.205 115.244 658.727 112.574 657.773C109.903 656.83 107.659 655.438 105.841 653.597C104.023 651.756 102.648 649.5 101.716 646.83C100.784 644.159 100.318 641.102 100.318 637.659C100.318 634.33 100.79 631.352 101.733 628.727C102.688 626.102 104.068 623.875 105.875 622.045C107.693 620.205 109.898 618.801 112.489 617.835C115.091 616.869 118.034 616.386 121.318 616.386C124.511 616.386 127.307 616.909 129.705 617.955C132.114 618.989 134.125 620.392 135.739 622.165C137.364 623.926 138.58 625.909 139.386 628.114C140.205 630.318 140.614 632.591 140.614 634.932C140.614 636.58 140.534 638.25 140.375 639.943C140.216 641.636 139.881 643.193 139.369 644.614C138.858 646.023 138.068 647.159 137 648.023C135.943 648.886 134.511 649.318 132.705 649.318C131.909 649.318 131.034 649.193 130.08 648.943C129.125 648.693 128.278 648.278 127.54 647.699C126.801 647.119 126.364 646.341 126.227 645.364H126.023C125.75 646.023 125.33 646.648 124.761 647.239C124.205 647.83 123.472 648.301 122.562 648.653C121.665 649.006 120.568 649.159 119.273 649.114C117.795 649.057 116.494 648.727 115.369 648.125C114.244 647.511 113.301 646.682 112.54 645.636C111.79 644.58 111.222 643.358 110.835 641.972C110.46 640.574 110.273 639.068 110.273 637.455C110.273 635.92 110.5 634.517 110.955 633.244C111.409 631.972 112.04 630.858 112.847 629.903C113.665 628.949 114.619 628.187 115.71 627.619C116.813 627.04 118 626.682 119.273 626.545C120.409 626.432 121.443 626.483 122.375 626.699C123.307 626.903 124.074 627.216 124.676 627.636C125.278 628.045 125.659 628.5 125.818 629H126.023V627.091H129.636V642.5C129.636 643.455 129.903 644.295 130.438 645.023C130.972 645.75 131.75 646.114 132.773 646.114C133.932 646.114 134.818 645.716 135.432 644.92C136.057 644.125 136.483 642.898 136.71 641.239C136.949 639.58 137.068 637.455 137.068 634.864C137.068 633.341 136.858 631.841 136.438 630.364C136.028 628.875 135.403 627.483 134.562 626.188C133.733 624.892 132.682 623.75 131.409 622.761C130.136 621.773 128.642 621 126.926 620.443C125.222 619.875 123.284 619.591 121.114 619.591C118.443 619.591 116.051 620.006 113.938 620.835C111.835 621.653 110.045 622.852 108.568 624.432C107.102 626 105.983 627.909 105.21 630.159C104.449 632.398 104.068 634.943 104.068 637.795C104.068 640.693 104.449 643.267 105.21 645.517C105.983 647.767 107.119 649.665 108.619 651.21C110.131 652.756 112 653.926 114.227 654.722C116.455 655.528 119.023 655.932 121.932 655.932C123.182 655.932 124.415 655.813 125.631 655.574C126.847 655.335 127.92 655.074 128.852 654.79C129.784 654.506 130.455 654.295 130.864 654.159L131.818 657.295C131.114 657.591 130.193 657.886 129.057 658.182C127.932 658.477 126.727 658.722 125.443 658.915C124.17 659.108 122.955 659.205 121.795 659.205ZM119.818 645.636C121.341 645.636 122.574 645.33 123.517 644.716C124.46 644.102 125.148 643.176 125.58 641.938C126.011 640.699 126.227 639.136 126.227 637.25C126.227 635.341 125.989 633.852 125.511 632.784C125.034 631.716 124.33 630.966 123.398 630.534C122.466 630.102 121.318 629.886 119.955 629.886C118.659 629.886 117.551 630.227 116.631 630.909C115.722 631.58 115.023 632.477 114.534 633.602C114.057 634.716 113.818 635.932 113.818 637.25C113.818 638.705 114.011 640.074 114.398 641.358C114.784 642.631 115.415 643.665 116.29 644.46C117.165 645.244 118.341 645.636 119.818 645.636ZM146.635 650V623.818H150.658V650H146.635ZM148.68 619.455C147.896 619.455 147.22 619.188 146.652 618.653C146.095 618.119 145.817 617.477 145.817 616.727C145.817 615.977 146.095 615.335 146.652 614.801C147.22 614.267 147.896 614 148.68 614C149.464 614 150.135 614.267 150.692 614.801C151.26 615.335 151.544 615.977 151.544 616.727C151.544 617.477 151.26 618.119 150.692 618.653C150.135 619.188 149.464 619.455 148.68 619.455ZM158.571 650V615.091H170.366C173.105 615.091 175.344 615.585 177.082 616.574C178.832 617.551 180.128 618.875 180.969 620.545C181.81 622.216 182.23 624.08 182.23 626.136C182.23 628.193 181.81 630.062 180.969 631.744C180.139 633.426 178.855 634.767 177.116 635.767C175.378 636.756 173.151 637.25 170.435 637.25H161.98V633.5H170.298C172.173 633.5 173.679 633.176 174.815 632.528C175.952 631.881 176.776 631.006 177.287 629.903C177.81 628.79 178.071 627.534 178.071 626.136C178.071 624.739 177.81 623.489 177.287 622.386C176.776 621.284 175.946 620.42 174.798 619.795C173.651 619.159 172.128 618.841 170.23 618.841H162.798V650H158.571ZM204.994 639.295V623.818H209.017V650H204.994V645.568H204.722C204.108 646.898 203.153 648.028 201.858 648.96C200.563 649.881 198.926 650.341 196.949 650.341C195.312 650.341 193.858 649.983 192.585 649.267C191.313 648.54 190.313 647.449 189.585 645.994C188.858 644.528 188.494 642.682 188.494 640.455V623.818H192.517V640.182C192.517 642.091 193.051 643.614 194.119 644.75C195.199 645.886 196.574 646.455 198.244 646.455C199.244 646.455 200.261 646.199 201.295 645.688C202.341 645.176 203.216 644.392 203.92 643.335C204.636 642.278 204.994 640.932 204.994 639.295ZM234.93 629.682L231.317 630.705C231.089 630.102 230.754 629.517 230.311 628.949C229.879 628.369 229.288 627.892 228.538 627.517C227.788 627.142 226.828 626.955 225.658 626.955C224.055 626.955 222.72 627.324 221.652 628.062C220.595 628.79 220.067 629.716 220.067 630.841C220.067 631.841 220.43 632.631 221.158 633.21C221.885 633.79 223.021 634.273 224.567 634.659L228.453 635.614C230.794 636.182 232.538 637.051 233.686 638.222C234.834 639.381 235.408 640.875 235.408 642.705C235.408 644.205 234.976 645.545 234.112 646.727C233.26 647.909 232.067 648.841 230.533 649.523C228.999 650.205 227.214 650.545 225.18 650.545C222.51 650.545 220.3 649.966 218.55 648.807C216.8 647.648 215.692 645.955 215.226 643.727L219.044 642.773C219.408 644.182 220.095 645.239 221.107 645.943C222.129 646.648 223.464 647 225.112 647C226.987 647 228.476 646.602 229.578 645.807C230.692 645 231.249 644.034 231.249 642.909C231.249 642 230.93 641.239 230.294 640.625C229.658 640 228.68 639.534 227.362 639.227L222.999 638.205C220.601 637.636 218.839 636.756 217.714 635.562C216.601 634.358 216.044 632.852 216.044 631.045C216.044 629.568 216.459 628.261 217.288 627.125C218.129 625.989 219.271 625.097 220.714 624.449C222.169 623.801 223.817 623.477 225.658 623.477C228.249 623.477 230.283 624.045 231.76 625.182C233.249 626.318 234.305 627.818 234.93 629.682ZM245.486 634.25V650H241.463V615.091H245.486V627.909H245.827C246.44 626.557 247.361 625.483 248.588 624.688C249.827 623.881 251.474 623.477 253.531 623.477C255.315 623.477 256.878 623.835 258.219 624.551C259.56 625.256 260.599 626.341 261.338 627.807C262.088 629.261 262.463 631.114 262.463 633.364V650H258.44V633.636C258.44 631.557 257.901 629.949 256.821 628.812C255.753 627.665 254.27 627.091 252.372 627.091C251.054 627.091 249.872 627.369 248.827 627.926C247.793 628.483 246.974 629.295 246.372 630.364C245.781 631.432 245.486 632.727 245.486 634.25ZM269.822 659.818V623.818H273.709V627.977H274.186C274.482 627.523 274.891 626.943 275.413 626.239C275.947 625.523 276.709 624.886 277.697 624.33C278.697 623.761 280.05 623.477 281.754 623.477C283.959 623.477 285.902 624.028 287.584 625.131C289.266 626.233 290.578 627.795 291.521 629.818C292.464 631.841 292.936 634.227 292.936 636.977C292.936 639.75 292.464 642.153 291.521 644.188C290.578 646.21 289.271 647.778 287.601 648.892C285.93 649.994 284.004 650.545 281.822 650.545C280.141 650.545 278.794 650.267 277.783 649.71C276.771 649.142 275.993 648.5 275.447 647.784C274.902 647.057 274.482 646.455 274.186 645.977H273.845V659.818H269.822ZM273.777 636.909C273.777 638.886 274.067 640.631 274.646 642.142C275.226 643.642 276.072 644.818 277.186 645.67C278.3 646.511 279.663 646.932 281.277 646.932C282.959 646.932 284.362 646.489 285.487 645.602C286.624 644.705 287.476 643.5 288.044 641.989C288.624 640.466 288.913 638.773 288.913 636.909C288.913 635.068 288.629 633.409 288.061 631.932C287.504 630.443 286.658 629.267 285.521 628.403C284.396 627.528 282.982 627.091 281.277 627.091C279.641 627.091 278.266 627.506 277.152 628.335C276.038 629.153 275.197 630.301 274.629 631.778C274.061 633.244 273.777 634.955 273.777 636.909ZM310.05 650.545C307.527 650.545 305.351 649.989 303.521 648.875C301.703 647.75 300.3 646.182 299.311 644.17C298.334 642.148 297.845 639.795 297.845 637.114C297.845 634.432 298.334 632.068 299.311 630.023C300.3 627.966 301.675 626.364 303.436 625.216C305.209 624.057 307.277 623.477 309.641 623.477C311.004 623.477 312.351 623.705 313.68 624.159C315.01 624.614 316.22 625.352 317.311 626.375C318.402 627.386 319.271 628.727 319.919 630.398C320.567 632.068 320.891 634.125 320.891 636.568V638.273H300.709V634.795H316.8C316.8 633.318 316.504 632 315.913 630.841C315.334 629.682 314.504 628.767 313.425 628.097C312.357 627.426 311.095 627.091 309.641 627.091C308.038 627.091 306.652 627.489 305.482 628.284C304.322 629.068 303.43 630.091 302.805 631.352C302.18 632.614 301.868 633.966 301.868 635.409V637.727C301.868 639.705 302.209 641.381 302.891 642.756C303.584 644.119 304.544 645.159 305.771 645.875C306.999 646.58 308.425 646.932 310.05 646.932C311.107 646.932 312.061 646.784 312.913 646.489C313.777 646.182 314.521 645.727 315.146 645.125C315.771 644.511 316.254 643.75 316.595 642.841L320.482 643.932C320.072 645.25 319.385 646.409 318.419 647.409C317.453 648.398 316.26 649.17 314.839 649.727C313.419 650.273 311.822 650.545 310.05 650.545ZM345.555 629.682L341.942 630.705C341.714 630.102 341.379 629.517 340.936 628.949C340.504 628.369 339.913 627.892 339.163 627.517C338.413 627.142 337.453 626.955 336.283 626.955C334.68 626.955 333.345 627.324 332.277 628.062C331.22 628.79 330.692 629.716 330.692 630.841C330.692 631.841 331.055 632.631 331.783 633.21C332.51 633.79 333.646 634.273 335.192 634.659L339.078 635.614C341.419 636.182 343.163 637.051 344.311 638.222C345.459 639.381 346.033 640.875 346.033 642.705C346.033 644.205 345.601 645.545 344.737 646.727C343.885 647.909 342.692 648.841 341.158 649.523C339.624 650.205 337.839 650.545 335.805 650.545C333.135 650.545 330.925 649.966 329.175 648.807C327.425 647.648 326.317 645.955 325.851 643.727L329.669 642.773C330.033 644.182 330.72 645.239 331.732 645.943C332.754 646.648 334.089 647 335.737 647C337.612 647 339.101 646.602 340.203 645.807C341.317 645 341.874 644.034 341.874 642.909C341.874 642 341.555 641.239 340.919 640.625C340.283 640 339.305 639.534 337.987 639.227L333.624 638.205C331.226 637.636 329.464 636.756 328.339 635.562C327.226 634.358 326.669 632.852 326.669 631.045C326.669 629.568 327.084 628.261 327.913 627.125C328.754 625.989 329.896 625.097 331.339 624.449C332.794 623.801 334.442 623.477 336.283 623.477C338.874 623.477 340.908 624.045 342.385 625.182C343.874 626.318 344.93 627.818 345.555 629.682ZM356.111 634.25V650H352.088V615.091H356.111V627.909H356.452C357.065 626.557 357.986 625.483 359.213 624.688C360.452 623.881 362.099 623.477 364.156 623.477C365.94 623.477 367.503 623.835 368.844 624.551C370.185 625.256 371.224 626.341 371.963 627.807C372.713 629.261 373.088 631.114 373.088 633.364V650H369.065V633.636C369.065 631.557 368.526 629.949 367.446 628.812C366.378 627.665 364.895 627.091 362.997 627.091C361.679 627.091 360.497 627.369 359.452 627.926C358.418 628.483 357.599 629.295 356.997 630.364C356.406 631.432 356.111 632.727 356.111 634.25ZM398.516 650V653.75H376.697V650H398.516ZM402.696 650V615.091H414.491C417.23 615.091 419.469 615.585 421.207 616.574C422.957 617.551 424.253 618.875 425.094 620.545C425.935 622.216 426.355 624.08 426.355 626.136C426.355 628.193 425.935 630.062 425.094 631.744C424.264 633.426 422.98 634.767 421.241 635.767C419.503 636.756 417.276 637.25 414.56 637.25H406.105V633.5H414.423C416.298 633.5 417.804 633.176 418.94 632.528C420.077 631.881 420.901 631.006 421.412 629.903C421.935 628.79 422.196 627.534 422.196 626.136C422.196 624.739 421.935 623.489 421.412 622.386C420.901 621.284 420.071 620.42 418.923 619.795C417.776 619.159 416.253 618.841 414.355 618.841H406.923V650H402.696ZM440.324 650.614C438.665 650.614 437.159 650.301 435.807 649.676C434.455 649.04 433.381 648.125 432.585 646.932C431.79 645.727 431.392 644.273 431.392 642.568C431.392 641.068 431.688 639.852 432.278 638.92C432.869 637.977 433.659 637.239 434.648 636.705C435.636 636.17 436.727 635.773 437.92 635.511C439.125 635.239 440.335 635.023 441.551 634.864C443.142 634.659 444.432 634.506 445.42 634.403C446.42 634.29 447.148 634.102 447.602 633.841C448.068 633.58 448.301 633.125 448.301 632.477V632.341C448.301 630.659 447.841 629.352 446.92 628.42C446.011 627.489 444.631 627.023 442.778 627.023C440.858 627.023 439.352 627.443 438.261 628.284C437.17 629.125 436.403 630.023 435.96 630.977L432.142 629.614C432.824 628.023 433.733 626.784 434.869 625.898C436.017 625 437.267 624.375 438.619 624.023C439.983 623.659 441.324 623.477 442.642 623.477C443.483 623.477 444.449 623.58 445.54 623.784C446.642 623.977 447.705 624.381 448.727 624.994C449.761 625.608 450.619 626.534 451.301 627.773C451.983 629.011 452.324 630.67 452.324 632.75V650H448.301V646.455H448.097C447.824 647.023 447.369 647.631 446.733 648.278C446.097 648.926 445.25 649.477 444.193 649.932C443.136 650.386 441.847 650.614 440.324 650.614ZM440.938 647C442.528 647 443.869 646.688 444.96 646.062C446.063 645.438 446.892 644.631 447.449 643.642C448.017 642.653 448.301 641.614 448.301 640.523V636.841C448.131 637.045 447.756 637.233 447.176 637.403C446.608 637.562 445.949 637.705 445.199 637.83C444.46 637.943 443.739 638.045 443.034 638.136C442.341 638.216 441.778 638.284 441.347 638.341C440.301 638.477 439.324 638.699 438.415 639.006C437.517 639.301 436.79 639.75 436.233 640.352C435.688 640.943 435.415 641.75 435.415 642.773C435.415 644.17 435.932 645.227 436.966 645.943C438.011 646.648 439.335 647 440.938 647ZM463.689 634.25V650H459.666V623.818H463.553V627.909H463.893C464.507 626.58 465.439 625.511 466.689 624.705C467.939 623.886 469.553 623.477 471.53 623.477C473.303 623.477 474.854 623.841 476.183 624.568C477.513 625.284 478.547 626.375 479.286 627.841C480.024 629.295 480.393 631.136 480.393 633.364V650H476.371V633.636C476.371 631.58 475.837 629.977 474.768 628.83C473.7 627.67 472.234 627.091 470.371 627.091C469.087 627.091 467.939 627.369 466.928 627.926C465.928 628.483 465.138 629.295 464.558 630.364C463.979 631.432 463.689 632.727 463.689 634.25ZM499.131 623.818V627.227H485.562V623.818H499.131ZM489.517 617.545H493.54V642.5C493.54 643.636 493.705 644.489 494.034 645.057C494.375 645.614 494.807 645.989 495.33 646.182C495.864 646.364 496.426 646.455 497.017 646.455C497.46 646.455 497.824 646.432 498.108 646.386C498.392 646.33 498.619 646.284 498.79 646.25L499.608 649.864C499.335 649.966 498.955 650.068 498.466 650.17C497.977 650.284 497.358 650.341 496.608 650.341C495.472 650.341 494.358 650.097 493.267 649.608C492.188 649.119 491.29 648.375 490.574 647.375C489.869 646.375 489.517 645.114 489.517 643.591V617.545Z" fill="white"/>
</g>
<rect x="0.5" y="0.5" width="749" height="749" rx="53.35" stroke="black" stroke-opacity="0.08"/>
<defs>
<filter id="filter0_ddi_1_96" x="65.3283" y="79.3772" width="294.452" height="282.983" filterUnits="userSpaceOnUse" color-interpolation-filters="sRGB">
<feFlood flood-opacity="0" result="BackgroundImageFix"/>
<feColorMatrix in="SourceAlpha" type="matrix" values="0 0 0 0 0 0 0 0 0 0 0 0 0 0 0 0 0 0 127 0" result="hardAlpha"/>
<feOffset dx="47.0544" dy="64.8108"/>
<feGaussianBlur stdDeviation="39.8631"/>
<feComposite in2="hardAlpha" operator="out"/>
<feColorMatrix type="matrix" values="0 0 0 0 0 0 0 0 0 0 0 0 0 0 0 0 0 0 0.53 0"/>
<feBlend mode="normal" in2="BackgroundImageFix" result="effect1_dropShadow_1_96"/>
<feColorMatrix in="SourceAlpha" type="matrix" values="0 0 0 0 0 0 0 0 0 0 0 0 0 0 0 0 0 0 127 0" result="hardAlpha"/>
<feOffset dx="16.8686" dy="19.532"/>
<feGaussianBlur stdDeviation="18.1559"/>
<feComposite in2="hardAlpha" operator="out"/>
<feColorMatrix type="matrix" values="0 0 0 0 0 0 0 0 0 0 0 0 0 0 0 0 0 0 0.62 0"/>
<feBlend mode="normal" in2="effect1_dropShadow_1_96" result="effect2_dropShadow_1_96"/>
<feBlend mode="normal" in="SourceGraphic" in2="effect2_dropShadow_1_96" result="shape"/>
<feColorMatrix in="SourceAlpha" type="matrix" values="0 0 0 0 0 0 0 0 0 0 0 0 0 0 0 0 0 0 127 0" result="hardAlpha"/>
<feOffset dx="-1.77564" dy="-3.55128"/>
<feGaussianBlur stdDeviation="1.77564"/>
<feComposite in2="hardAlpha" operator="arithmetic" k2="-1" k3="1"/>
<feColorMatrix type="matrix" values="0 0 0 0 0.253711 0 0 0 0 0.253711 0 0 0 0 0.253711 0 0 0 0.45 0"/>
<feBlend mode="normal" in2="shape" result="effect3_innerShadow_1_96"/>
</filter>
<linearGradient id="paint0_linear_1_96" x1="108" y1="-4.0669e-07" x2="108" y2="750" gradientUnits="userSpaceOnUse">
<stop stop-color="#302F34"/>
<stop offset="0.953345" stop-color="#1A191C"/>
</linearGradient>
<clipPath id="clip0_1_96">
<rect width="750" height="750" rx="53.85" fill="white"/>
</clipPath>
</defs>
</svg>
